<?xml version="1.0" encoding="utf-8" standalone="no"?>
<!DOCTYPE svg PUBLIC "-//W3C//DTD SVG 1.1//EN"
  "http://www.w3.org/Graphics/SVG/1.1/DTD/svg11.dtd">
<svg xmlns:xlink="http://www.w3.org/1999/xlink" width="582.64pt" height="442.325pt" viewBox="0 0 582.64 442.325" xmlns="http://www.w3.org/2000/svg" version="1.1">
 <metadata>
  <rdf:RDF xmlns:dc="http://purl.org/dc/elements/1.1/" xmlns:cc="http://creativecommons.org/ns#" xmlns:rdf="http://www.w3.org/1999/02/22-rdf-syntax-ns#">
   <cc:Work>
    <dc:type rdf:resource="http://purl.org/dc/dcmitype/StillImage"/>
    <dc:date>2023-05-15T21:46:46.897542</dc:date>
    <dc:format>image/svg+xml</dc:format>
    <dc:creator>
     <cc:Agent>
      <dc:title>Matplotlib v3.5.3, https://matplotlib.org/</dc:title>
     </cc:Agent>
    </dc:creator>
   </cc:Work>
  </rdf:RDF>
 </metadata>
 <defs>
  <style type="text/css">*{stroke-linejoin: round; stroke-linecap: butt}</style>
 </defs>
 <g id="figure_1">
  <g id="patch_1">
   <path d="M 0 442.325 
L 582.64 442.325 
L 582.64 0 
L 0 0 
z
" style="fill: #ffffff"/>
  </g>
  <g id="axes_1">
   <g id="PolyCollection_1">
    <defs>
     <path id="mb1d5deff5a" d="M 32.563636 -34.92 
L 32.563636 -34.92 
L 33.071417 -34.92 
L 33.579197 -34.92 
L 34.086978 -34.92 
L 34.594758 -34.92 
L 35.102539 -34.92 
L 35.610319 -34.92 
L 36.1181 -34.92 
L 36.62588 -34.92 
L 37.133661 -34.92 
L 37.641441 -34.92 
L 38.149222 -34.92 
L 38.657002 -34.92 
L 39.164783 -34.92 
L 39.672563 -34.92 
L 40.180344 -34.92 
L 40.688124 -34.92 
L 41.195905 -34.92 
L 41.703686 -34.92 
L 42.211466 -34.92 
L 42.719247 -34.92 
L 43.227027 -34.92 
L 43.734808 -34.92 
L 44.242588 -34.92 
L 44.750369 -34.92 
L 45.258149 -34.92 
L 45.76593 -34.92 
L 46.27371 -34.92 
L 46.781491 -34.92 
L 47.289271 -34.92 
L 47.797052 -34.92 
L 48.304832 -34.92 
L 48.812613 -34.92 
L 49.320393 -34.92 
L 49.828174 -34.92 
L 50.335954 -34.92 
L 50.843735 -34.92 
L 51.351515 -34.92 
L 51.859296 -34.92 
L 52.367076 -34.92 
L 52.874857 -34.92 
L 53.382637 -34.92 
L 53.890418 -34.92 
L 54.398198 -34.92 
L 54.905979 -34.92 
L 55.413759 -34.92 
L 55.92154 -34.92 
L 56.42932 -34.92 
L 56.937101 -34.92 
L 57.444881 -34.92 
L 57.952662 -34.92 
L 58.460442 -34.92 
L 58.968223 -34.92 
L 59.476003 -34.92 
L 59.983784 -34.92 
L 60.491564 -34.92 
L 60.999345 -34.92 
L 61.507125 -34.92 
L 62.014906 -34.92 
L 62.522686 -34.92 
L 63.030467 -34.92 
L 63.538247 -34.92 
L 64.046028 -34.92 
L 64.553808 -34.92 
L 65.061589 -34.92 
L 65.569369 -34.92 
L 66.07715 -34.92 
L 66.58493 -34.92 
L 67.092711 -34.92 
L 67.600491 -34.92 
L 68.108272 -34.92 
L 68.616052 -34.92 
L 69.123833 -34.92 
L 69.631613 -34.92 
L 70.139394 -34.92 
L 70.647174 -34.92 
L 71.154955 -34.92 
L 71.662735 -34.92 
L 72.170516 -34.92 
L 72.678296 -34.92 
L 73.186077 -34.92 
L 73.693857 -34.92 
L 74.201638 -34.92 
L 74.709419 -34.92 
L 75.217199 -34.92 
L 75.72498 -34.92 
L 76.23276 -34.92 
L 76.740541 -34.92 
L 77.248321 -34.92 
L 77.756102 -34.92 
L 78.263882 -34.92 
L 78.771663 -34.92 
L 79.279443 -34.92 
L 79.787224 -34.92 
L 80.295004 -34.92 
L 80.802785 -34.92 
L 81.310565 -34.92 
L 81.818346 -34.92 
L 82.326126 -34.92 
L 82.833907 -34.92 
L 83.341687 -34.92 
L 83.849468 -34.92 
L 84.357248 -34.92 
L 84.865029 -34.92 
L 85.372809 -34.92 
L 85.88059 -34.92 
L 86.38837 -34.92 
L 86.896151 -34.92 
L 87.403931 -34.92 
L 87.911712 -34.92 
L 88.419492 -34.92 
L 88.927273 -34.92 
L 89.435053 -34.92 
L 89.942834 -34.92 
L 90.450614 -34.92 
L 90.958395 -34.92 
L 91.466175 -34.92 
L 91.973956 -34.92 
L 92.481736 -34.92 
L 92.989517 -34.92 
L 93.497297 -34.92 
L 94.005078 -34.92 
L 94.512858 -34.92 
L 95.020639 -34.92 
L 95.528419 -34.92 
L 96.0362 -34.92 
L 96.54398 -34.92 
L 97.051761 -34.92 
L 97.559541 -34.92 
L 98.067322 -34.92 
L 98.575102 -34.92 
L 99.082883 -34.92 
L 99.590663 -34.92 
L 100.098444 -34.92 
L 100.606224 -34.92 
L 101.114005 -34.92 
L 101.621785 -34.92 
L 102.129566 -34.92 
L 102.637346 -34.92 
L 103.145127 -34.92 
L 103.652907 -34.92 
L 104.160688 -34.92 
L 104.668468 -34.92 
L 105.176249 -34.92 
L 105.684029 -34.92 
L 106.19181 -34.92 
L 106.69959 -34.92 
L 107.207371 -34.92 
L 107.715152 -34.92 
L 108.222932 -34.92 
L 108.730713 -34.92 
L 109.238493 -34.92 
L 109.746274 -34.92 
L 110.254054 -34.92 
L 110.761835 -34.92 
L 111.269615 -34.92 
L 111.777396 -34.92 
L 112.285176 -34.92 
L 112.792957 -34.92 
L 113.300737 -34.92 
L 113.808518 -34.92 
L 114.316298 -34.92 
L 114.824079 -34.92 
L 115.331859 -34.92 
L 115.83964 -34.92 
L 116.34742 -34.92 
L 116.855201 -34.92 
L 117.362981 -34.92 
L 117.870762 -34.92 
L 118.378542 -34.92 
L 118.886323 -34.92 
L 119.394103 -34.92 
L 119.901884 -34.92 
L 120.409664 -34.92 
L 120.917445 -34.92 
L 121.425225 -34.92 
L 121.933006 -34.92 
L 122.440786 -34.92 
L 122.948567 -34.92 
L 123.456347 -34.92 
L 123.964128 -34.92 
L 124.471908 -34.92 
L 124.979689 -34.92 
L 125.487469 -34.92 
L 125.99525 -34.92 
L 126.50303 -34.92 
L 127.010811 -34.92 
L 127.518591 -34.92 
L 128.026372 -34.92 
L 128.534152 -34.92 
L 129.041933 -34.92 
L 129.549713 -34.92 
L 130.057494 -34.92 
L 130.565274 -34.92 
L 131.073055 -34.92 
L 131.580835 -34.92 
L 132.088616 -34.92 
L 132.596396 -34.92 
L 133.104177 -34.92 
L 133.611957 -34.92 
L 134.119738 -34.92 
L 134.627518 -34.92 
L 135.135299 -34.92 
L 135.643079 -34.92 
L 136.15086 -34.92 
L 136.65864 -34.92 
L 137.166421 -34.92 
L 137.674201 -34.92 
L 138.181982 -34.92 
L 138.689762 -34.92 
L 139.197543 -34.92 
L 139.705324 -34.92 
L 140.213104 -34.92 
L 140.720885 -34.92 
L 141.228665 -34.92 
L 141.736446 -34.92 
L 142.244226 -34.92 
L 142.752007 -34.92 
L 143.259787 -34.92 
L 143.767568 -34.92 
L 144.275348 -34.92 
L 144.783129 -34.92 
L 145.290909 -34.92 
L 145.79869 -34.92 
L 146.30647 -34.92 
L 146.814251 -34.92 
L 147.322031 -34.92 
L 147.829812 -34.92 
L 148.337592 -34.92 
L 148.845373 -34.92 
L 149.353153 -34.92 
L 149.860934 -34.92 
L 150.368714 -34.92 
L 150.876495 -34.92 
L 151.384275 -34.92 
L 151.892056 -34.92 
L 152.399836 -34.92 
L 152.907617 -34.92 
L 153.415397 -34.92 
L 153.923178 -34.92 
L 154.430958 -34.92 
L 154.938739 -34.92 
L 155.446519 -34.92 
L 155.9543 -34.92 
L 156.46208 -34.92 
L 156.969861 -34.92 
L 157.477641 -34.92 
L 157.985422 -34.92 
L 158.493202 -34.92 
L 159.000983 -34.92 
L 159.508763 -34.92 
L 160.016544 -34.92 
L 160.524324 -34.92 
L 161.032105 -34.92 
L 161.539885 -34.92 
L 162.047666 -34.92 
L 162.555446 -34.92 
L 163.063227 -34.92 
L 163.571007 -34.92 
L 164.078788 -34.92 
L 164.586568 -34.92 
L 165.094349 -34.92 
L 165.602129 -34.92 
L 166.10991 -34.92 
L 166.61769 -34.92 
L 167.125471 -34.92 
L 167.633251 -34.92 
L 168.141032 -34.92 
L 168.648812 -34.92 
L 169.156593 -34.92 
L 169.664373 -34.92 
L 170.172154 -34.92 
L 170.679934 -34.92 
L 171.187715 -34.92 
L 171.695495 -34.92 
L 172.203276 -34.92 
L 172.711057 -34.92 
L 173.218837 -34.92 
L 173.726618 -34.92 
L 174.234398 -34.92 
L 174.742179 -34.92 
L 175.249959 -34.92 
L 175.75774 -34.92 
L 176.26552 -34.92 
L 176.773301 -34.92 
L 177.281081 -34.92 
L 177.788862 -34.92 
L 178.296642 -34.92 
L 178.804423 -34.92 
L 179.312203 -34.92 
L 179.819984 -34.92 
L 180.327764 -34.92 
L 180.835545 -34.92 
L 181.343325 -34.92 
L 181.851106 -34.92 
L 182.358886 -34.92 
L 182.866667 -34.92 
L 183.374447 -34.92 
L 183.882228 -34.92 
L 184.390008 -34.92 
L 184.897789 -34.92 
L 185.405569 -34.92 
L 185.91335 -34.92 
L 186.42113 -34.92 
L 186.928911 -34.92 
L 187.436691 -34.92 
L 187.944472 -34.92 
L 188.452252 -34.92 
L 188.960033 -34.92 
L 189.467813 -34.92 
L 189.975594 -34.92 
L 190.483374 -34.92 
L 190.991155 -34.92 
L 191.498935 -34.92 
L 192.006716 -34.92 
L 192.514496 -34.92 
L 193.022277 -34.92 
L 193.530057 -34.92 
L 194.037838 -34.92 
L 194.545618 -34.92 
L 195.053399 -34.92 
L 195.561179 -34.92 
L 196.06896 -34.92 
L 196.57674 -34.92 
L 197.084521 -34.92 
L 197.592301 -34.92 
L 198.100082 -34.92 
L 198.607862 -34.92 
L 199.115643 -34.92 
L 199.623423 -34.92 
L 200.131204 -34.92 
L 200.638984 -34.92 
L 201.146765 -34.92 
L 201.654545 -34.92 
L 202.162326 -34.92 
L 202.670106 -34.92 
L 203.177887 -34.92 
L 203.685667 -34.92 
L 204.193448 -34.92 
L 204.701229 -34.92 
L 205.209009 -34.92 
L 205.71679 -34.92 
L 206.22457 -34.92 
L 206.732351 -34.92 
L 207.240131 -34.92 
L 207.747912 -34.92 
L 208.255692 -34.92 
L 208.763473 -34.92 
L 209.271253 -34.92 
L 209.779034 -34.92 
L 210.286814 -34.92 
L 210.794595 -34.92 
L 211.302375 -34.92 
L 211.810156 -34.92 
L 212.317936 -34.92 
L 212.825717 -34.92 
L 213.333497 -34.92 
L 213.841278 -34.92 
L 214.349058 -34.92 
L 214.856839 -34.92 
L 215.364619 -34.92 
L 215.8724 -34.92 
L 216.38018 -34.92 
L 216.887961 -34.92 
L 217.395741 -34.92 
L 217.903522 -34.92 
L 218.411302 -34.92 
L 218.919083 -34.92 
L 219.426863 -34.92 
L 219.934644 -34.92 
L 220.442424 -34.92 
L 220.950205 -34.92 
L 221.457985 -34.92 
L 221.965766 -34.92 
L 222.473546 -34.92 
L 222.981327 -34.92 
L 223.489107 -34.92 
L 223.996888 -34.92 
L 224.504668 -34.92 
L 225.012449 -34.92 
L 225.520229 -34.92 
L 226.02801 -34.92 
L 226.53579 -34.92 
L 227.043571 -34.92 
L 227.551351 -34.92 
L 228.059132 -34.92 
L 228.566912 -34.92 
L 229.074693 -34.92 
L 229.582473 -34.92 
L 230.090254 -34.92 
L 230.598034 -34.92 
L 231.105815 -34.92 
L 231.613595 -34.92 
L 232.121376 -34.92 
L 232.629156 -34.92 
L 233.136937 -34.92 
L 233.644717 -34.92 
L 234.152498 -34.92 
L 234.660278 -34.92 
L 235.168059 -34.92 
L 235.675839 -34.92 
L 236.18362 -34.92 
L 236.6914 -34.92 
L 237.199181 -34.92 
L 237.706962 -34.92 
L 238.214742 -34.92 
L 238.722523 -34.92 
L 239.230303 -34.92 
L 239.738084 -34.92 
L 240.245864 -34.92 
L 240.753645 -34.92 
L 241.261425 -34.92 
L 241.769206 -34.92 
L 242.276986 -34.92 
L 242.784767 -34.92 
L 243.292547 -34.92 
L 243.800328 -34.92 
L 244.308108 -34.92 
L 244.815889 -34.92 
L 245.323669 -34.92 
L 245.83145 -34.92 
L 246.33923 -34.92 
L 246.847011 -34.92 
L 247.354791 -34.92 
L 247.862572 -34.92 
L 248.370352 -34.92 
L 248.878133 -34.92 
L 249.385913 -34.92 
L 249.893694 -34.92 
L 250.401474 -34.92 
L 250.909255 -34.92 
L 251.417035 -34.92 
L 251.924816 -34.92 
L 252.432596 -34.92 
L 252.940377 -34.92 
L 253.448157 -34.92 
L 253.955938 -34.92 
L 254.463718 -34.92 
L 254.971499 -34.92 
L 255.479279 -34.92 
L 255.98706 -34.92 
L 256.49484 -34.92 
L 257.002621 -34.92 
L 257.510401 -34.92 
L 258.018182 -34.92 
L 258.525962 -34.92 
L 259.033743 -34.92 
L 259.541523 -34.92 
L 260.049304 -34.92 
L 260.557084 -34.92 
L 261.064865 -34.92 
L 261.572645 -34.92 
L 262.080426 -34.92 
L 262.588206 -34.92 
L 263.095987 -34.92 
L 263.603767 -34.92 
L 264.111548 -34.92 
L 264.619328 -34.92 
L 265.127109 -34.92 
L 265.634889 -34.92 
L 266.14267 -34.92 
L 266.65045 -34.92 
L 267.158231 -34.92 
L 267.666011 -34.92 
L 268.173792 -34.92 
L 268.681572 -34.92 
L 269.189353 -34.92 
L 269.697133 -34.92 
L 270.204914 -34.92 
L 270.712695 -34.92 
L 271.220475 -34.92 
L 271.728256 -34.92 
L 272.236036 -34.92 
L 272.743817 -34.92 
L 273.251597 -34.92 
L 273.759378 -34.92 
L 274.267158 -34.92 
L 274.774939 -34.92 
L 275.282719 -34.92 
L 275.7905 -34.92 
L 276.29828 -34.92 
L 276.806061 -34.92 
L 277.313841 -34.92 
L 277.821622 -34.92 
L 278.329402 -34.92 
L 278.837183 -34.92 
L 279.344963 -34.92 
L 279.852744 -34.92 
L 280.360524 -34.92 
L 280.868305 -34.92 
L 281.376085 -34.92 
L 281.883866 -34.92 
L 282.391646 -34.92 
L 282.899427 -34.92 
L 283.407207 -34.92 
L 283.914988 -34.92 
L 284.422768 -34.92 
L 284.930549 -34.92 
L 285.438329 -34.92 
L 285.94611 -34.92 
L 286.45389 -34.92 
L 286.961671 -34.92 
L 287.469451 -34.92 
L 287.977232 -34.92 
L 288.485012 -34.92 
L 288.992793 -34.92 
L 289.500573 -34.92 
L 290.008354 -34.92 
L 290.516134 -34.92 
L 291.023915 -34.92 
L 291.531695 -34.92 
L 292.039476 -34.92 
L 292.547256 -34.92 
L 293.055037 -34.92 
L 293.562817 -34.92 
L 294.070598 -34.92 
L 294.578378 -34.92 
L 295.086159 -34.92 
L 295.593939 -34.92 
L 296.10172 -34.92 
L 296.6095 -34.92 
L 297.117281 -34.92 
L 297.625061 -34.92 
L 298.132842 -34.92 
L 298.640622 -34.92 
L 299.148403 -34.92 
L 299.656183 -34.92 
L 300.163964 -34.92 
L 300.671744 -34.92 
L 301.179525 -34.92 
L 301.687305 -34.92 
L 302.195086 -34.92 
L 302.702867 -34.92 
L 303.210647 -34.92 
L 303.718428 -34.92 
L 304.226208 -34.92 
L 304.733989 -34.92 
L 305.241769 -34.92 
L 305.74955 -34.92 
L 306.25733 -34.92 
L 306.765111 -34.92 
L 307.272891 -34.92 
L 307.780672 -34.92 
L 308.288452 -34.92 
L 308.796233 -34.92 
L 309.304013 -34.92 
L 309.811794 -34.92 
L 310.319574 -34.92 
L 310.827355 -34.92 
L 311.335135 -34.92 
L 311.842916 -34.92 
L 312.350696 -34.92 
L 312.858477 -34.92 
L 313.366257 -34.92 
L 313.874038 -34.92 
L 314.381818 -34.92 
L 314.889599 -34.92 
L 315.397379 -34.92 
L 315.90516 -34.92 
L 316.41294 -34.92 
L 316.920721 -34.92 
L 317.428501 -34.92 
L 317.936282 -34.92 
L 318.444062 -34.92 
L 318.951843 -34.92 
L 319.459623 -34.92 
L 319.967404 -34.92 
L 320.475184 -34.92 
L 320.982965 -34.92 
L 321.490745 -34.92 
L 321.998526 -34.92 
L 322.506306 -34.92 
L 323.014087 -34.92 
L 323.521867 -34.92 
L 324.029648 -34.92 
L 324.537428 -34.92 
L 325.045209 -34.92 
L 325.552989 -34.92 
L 326.06077 -34.92 
L 326.56855 -34.92 
L 327.076331 -34.92 
L 327.584111 -34.92 
L 328.091892 -34.92 
L 328.599672 -34.92 
L 329.107453 -34.92 
L 329.615233 -34.92 
L 330.123014 -34.92 
L 330.630794 -34.92 
L 331.138575 -34.92 
L 331.646355 -34.92 
L 332.154136 -34.92 
L 332.661916 -34.92 
L 333.169697 -34.92 
L 333.677477 -34.92 
L 334.185258 -34.92 
L 334.693038 -34.92 
L 335.200819 -34.92 
L 335.7086 -34.92 
L 336.21638 -34.92 
L 336.724161 -34.92 
L 337.231941 -34.92 
L 337.739722 -34.92 
L 338.247502 -34.92 
L 338.755283 -34.92 
L 339.263063 -34.92 
L 339.770844 -34.92 
L 340.278624 -34.92 
L 340.786405 -34.92 
L 341.294185 -34.92 
L 341.801966 -34.92 
L 342.309746 -34.92 
L 342.817527 -34.92 
L 343.325307 -34.92 
L 343.833088 -34.92 
L 344.340868 -34.92 
L 344.848649 -34.92 
L 345.356429 -34.92 
L 345.86421 -34.92 
L 346.37199 -34.92 
L 346.879771 -34.92 
L 347.387551 -34.92 
L 347.895332 -34.92 
L 348.403112 -34.92 
L 348.910893 -34.92 
L 349.418673 -34.92 
L 349.926454 -34.92 
L 350.434234 -34.92 
L 350.942015 -34.92 
L 351.449795 -34.92 
L 351.957576 -34.92 
L 352.465356 -34.92 
L 352.973137 -34.92 
L 353.480917 -34.92 
L 353.988698 -34.92 
L 354.496478 -34.92 
L 355.004259 -34.92 
L 355.512039 -34.92 
L 356.01982 -34.92 
L 356.5276 -34.92 
L 357.035381 -34.92 
L 357.543161 -34.92 
L 358.050942 -34.92 
L 358.558722 -34.92 
L 359.066503 -34.92 
L 359.574283 -34.92 
L 360.082064 -34.92 
L 360.589844 -34.92 
L 361.097625 -34.92 
L 361.605405 -34.92 
L 362.113186 -34.92 
L 362.620966 -34.92 
L 363.128747 -34.92 
L 363.636527 -34.92 
L 364.144308 -34.92 
L 364.652088 -34.92 
L 365.159869 -34.92 
L 365.667649 -34.92 
L 366.17543 -34.92 
L 366.68321 -34.92 
L 367.190991 -34.92 
L 367.698771 -34.92 
L 368.206552 -34.92 
L 368.714333 -34.92 
L 369.222113 -34.92 
L 369.729894 -34.92 
L 370.237674 -34.92 
L 370.745455 -34.92 
L 371.253235 -34.92 
L 371.761016 -34.92 
L 372.268796 -34.92 
L 372.776577 -34.92 
L 373.284357 -34.92 
L 373.792138 -34.92 
L 374.299918 -34.92 
L 374.807699 -34.92 
L 375.315479 -34.92 
L 375.82326 -34.92 
L 376.33104 -34.92 
L 376.838821 -34.92 
L 377.346601 -34.92 
L 377.854382 -34.92 
L 378.362162 -34.92 
L 378.869943 -34.92 
L 379.377723 -34.92 
L 379.885504 -34.92 
L 380.393284 -34.92 
L 380.901065 -34.92 
L 381.408845 -34.92 
L 381.916626 -34.92 
L 382.424406 -34.92 
L 382.932187 -34.92 
L 383.439967 -34.92 
L 383.947748 -34.92 
L 384.455528 -34.92 
L 384.963309 -34.92 
L 385.471089 -34.92 
L 385.97887 -34.92 
L 386.48665 -34.92 
L 386.994431 -34.92 
L 387.502211 -34.92 
L 388.009992 -34.92 
L 388.517772 -34.92 
L 389.025553 -34.92 
L 389.533333 -34.92 
L 390.041114 -34.92 
L 390.548894 -34.92 
L 391.056675 -34.92 
L 391.564455 -34.92 
L 392.072236 -34.92 
L 392.580016 -34.92 
L 393.087797 -34.92 
L 393.595577 -34.92 
L 394.103358 -34.92 
L 394.611138 -34.92 
L 395.118919 -34.92 
L 395.626699 -34.92 
L 396.13448 -34.92 
L 396.64226 -34.92 
L 397.150041 -34.92 
L 397.657821 -34.92 
L 398.165602 -34.92 
L 398.673382 -34.92 
L 399.181163 -34.92 
L 399.688943 -34.92 
L 400.196724 -34.92 
L 400.704505 -34.92 
L 401.212285 -34.92 
L 401.720066 -34.92 
L 402.227846 -34.92 
L 402.735627 -34.92 
L 403.243407 -34.92 
L 403.751188 -34.92 
L 404.258968 -34.92 
L 404.766749 -34.92 
L 405.274529 -34.92 
L 405.78231 -34.92 
L 406.29009 -34.92 
L 406.797871 -34.92 
L 407.305651 -34.92 
L 407.813432 -34.92 
L 408.321212 -34.92 
L 408.828993 -34.92 
L 409.336773 -34.92 
L 409.844554 -34.92 
L 410.352334 -34.92 
L 410.860115 -34.92 
L 411.367895 -34.92 
L 411.875676 -34.92 
L 412.383456 -34.92 
L 412.891237 -34.92 
L 413.399017 -34.92 
L 413.906798 -34.92 
L 414.414578 -34.92 
L 414.922359 -34.92 
L 415.430139 -34.92 
L 415.93792 -34.92 
L 416.4457 -34.92 
L 416.953481 -34.92 
L 417.461261 -34.92 
L 417.969042 -34.92 
L 418.476822 -34.92 
L 418.984603 -34.92 
L 419.492383 -34.92 
L 420.000164 -34.92 
L 420.507944 -34.92 
L 421.015725 -34.92 
L 421.523505 -34.92 
L 422.031286 -34.92 
L 422.539066 -34.92 
L 423.046847 -34.92 
L 423.554627 -34.92 
L 424.062408 -34.92 
L 424.570188 -34.92 
L 425.077969 -34.92 
L 425.585749 -34.92 
L 426.09353 -34.92 
L 426.60131 -34.92 
L 427.109091 -34.92 
L 427.616871 -34.92 
L 428.124652 -34.92 
L 428.632432 -34.92 
L 429.140213 -34.92 
L 429.647993 -34.92 
L 430.155774 -34.92 
L 430.663554 -34.92 
L 431.171335 -34.92 
L 431.679115 -34.92 
L 432.186896 -34.92 
L 432.694676 -34.92 
L 433.202457 -34.92 
L 433.710238 -34.92 
L 434.218018 -34.92 
L 434.725799 -34.92 
L 435.233579 -34.92 
L 435.74136 -34.92 
L 436.24914 -34.92 
L 436.756921 -34.92 
L 437.264701 -34.92 
L 437.772482 -34.92 
L 438.280262 -34.92 
L 438.788043 -113.654633 
L 439.295823 -112.767332 
L 439.803604 -111.889441 
L 440.311384 -111.020875 
L 440.819165 -110.161547 
L 441.326945 -109.311371 
L 441.834726 -108.470263 
L 442.342506 -107.638137 
L 442.850287 -106.81491 
L 443.358067 -106.000498 
L 443.865848 -105.194818 
L 444.373628 -104.397788 
L 444.881409 -103.609326 
L 445.389189 -102.82935 
L 445.89697 -102.057779 
L 446.40475 -101.294533 
L 446.912531 -100.539533 
L 447.420311 -99.792698 
L 447.928092 -99.05395 
L 448.435872 -98.323211 
L 448.943653 -97.600403 
L 449.451433 -96.88545 
L 449.959214 -96.178274 
L 450.466994 -95.478799 
L 450.974775 -94.78695 
L 451.482555 -94.102653 
L 451.990336 -93.425832 
L 452.498116 -92.756414 
L 453.005897 -92.094325 
L 453.513677 -91.439493 
L 454.021458 -90.791846 
L 454.529238 -90.151312 
L 455.037019 -89.517819 
L 455.544799 -88.891298 
L 456.05258 -88.271679 
L 456.56036 -87.658891 
L 457.068141 -87.052866 
L 457.575921 -86.453536 
L 458.083702 -85.860833 
L 458.591482 -85.27469 
L 459.099263 -84.695039 
L 459.607043 -84.121815 
L 460.114824 -83.554953 
L 460.622604 -82.994386 
L 461.130385 -82.440051 
L 461.638165 -81.891883 
L 462.145946 -81.34982 
L 462.653726 -80.813797 
L 463.161507 -80.283753 
L 463.669287 -79.759627 
L 464.177068 -79.241355 
L 464.684848 -78.728878 
L 465.192629 -78.222136 
L 465.70041 -77.721068 
L 466.20819 -77.225616 
L 466.715971 -76.73572 
L 467.223751 -76.251323 
L 467.731532 -75.772367 
L 468.239312 -75.298794 
L 468.747093 -74.830548 
L 469.254873 -74.367573 
L 469.762654 -73.909813 
L 470.270434 -73.457212 
L 470.778215 -73.009718 
L 471.285995 -72.567274 
L 471.793776 -72.129828 
L 472.301556 -71.697326 
L 472.809337 -71.269715 
L 473.317117 -70.846945 
L 473.824898 -70.428961 
L 474.332678 -70.015715 
L 474.840459 -69.607154 
L 475.348239 -69.203229 
L 475.85602 -68.803889 
L 476.3638 -68.409086 
L 476.871581 -68.01877 
L 477.379361 -67.632893 
L 477.887142 -67.251408 
L 478.394922 -66.874266 
L 478.902703 -66.501421 
L 479.410483 -66.132825 
L 479.918264 -65.768434 
L 480.426044 -65.408202 
L 480.933825 -65.052082 
L 481.441605 -64.700031 
L 481.949386 -64.352003 
L 482.457166 -64.007956 
L 482.964947 -63.667845 
L 483.472727 -63.331628 
L 483.980508 -62.999261 
L 484.488288 -62.670703 
L 484.996069 -62.345912 
L 485.503849 -62.024846 
L 486.01163 -61.707465 
L 486.51941 -61.393728 
L 487.027191 -61.083595 
L 487.534971 -60.777025 
L 488.042752 -60.473981 
L 488.550532 -60.174422 
L 489.058313 -59.87831 
L 489.566093 -59.585607 
L 490.073874 -59.296276 
L 490.581654 -59.010278 
L 491.089435 -58.727577 
L 491.597215 -58.448137 
L 492.104996 -58.17192 
L 492.612776 -57.898892 
L 493.120557 -57.629015 
L 493.628337 -57.362257 
L 494.136118 -57.098581 
L 494.643898 -56.837953 
L 495.151679 -56.580339 
L 495.659459 -56.325705 
L 496.16724 -56.074019 
L 496.67502 -55.825246 
L 497.182801 -55.579355 
L 497.690581 -55.336313 
L 498.198362 -55.096087 
L 498.706143 -54.858647 
L 499.213923 -54.623961 
L 499.721704 -54.391998 
L 500.229484 -54.162727 
L 500.737265 -53.936119 
L 501.245045 -53.712142 
L 501.752826 -53.490767 
L 502.260606 -53.271965 
L 502.768387 -53.055707 
L 503.276167 -52.841964 
L 503.783948 -52.630707 
L 504.291728 -52.421909 
L 504.799509 -52.215541 
L 505.307289 -52.011577 
L 505.81507 -51.809987 
L 506.32285 -51.610747 
L 506.830631 -51.413828 
L 507.338411 -51.219206 
L 507.846192 -51.026852 
L 508.353972 -50.836742 
L 508.861753 -50.648851 
L 509.369533 -50.463152 
L 509.877314 -50.279621 
L 510.385094 -50.098233 
L 510.892875 -49.918964 
L 511.400655 -49.741789 
L 511.908436 -49.566685 
L 512.416216 -49.393627 
L 512.923997 -49.222593 
L 513.431777 -49.05356 
L 513.939558 -48.886503 
L 514.447338 -48.721402 
L 514.955119 -48.558232 
L 515.462899 -48.396973 
L 515.97068 -48.237602 
L 516.47846 -48.080098 
L 516.986241 -47.924438 
L 517.494021 -47.770603 
L 518.001802 -47.618571 
L 518.509582 -47.46832 
L 519.017363 -47.319832 
L 519.525143 -47.173085 
L 520.032924 -47.028059 
L 520.540704 -46.884735 
L 521.048485 -46.743093 
L 521.556265 -46.603114 
L 522.064046 -46.464777 
L 522.571826 -46.328065 
L 523.079607 -46.192959 
L 523.587387 -46.05944 
L 524.095168 -45.92749 
L 524.602948 -45.79709 
L 525.110729 -45.668223 
L 525.618509 -45.540871 
L 526.12629 -45.415017 
L 526.63407 -45.290642 
L 527.141851 -45.16773 
L 527.649631 -45.046265 
L 528.157412 -44.926229 
L 528.665192 -44.807605 
L 529.172973 -44.690378 
L 529.680753 -44.574531 
L 530.188534 -44.460047 
L 530.696314 -44.346913 
L 531.204095 -44.23511 
L 531.711876 -44.124625 
L 532.219656 -44.015442 
L 532.727437 -43.907545 
L 533.235217 -43.80092 
L 533.742998 -43.695552 
L 534.250778 -43.591426 
L 534.758559 -43.488528 
L 535.266339 -43.386843 
L 535.77412 -43.286358 
L 536.2819 -43.187058 
L 536.789681 -43.08893 
L 537.297461 -42.99196 
L 537.805242 -42.896134 
L 538.313022 -42.801439 
L 538.820803 -42.707862 
L 539.328583 -42.61539 
L 539.836364 -42.52401 
L 539.836364 -34.92 
L 539.836364 -34.92 
L 539.328583 -34.92 
L 538.820803 -34.92 
L 538.313022 -34.92 
L 537.805242 -34.92 
L 537.297461 -34.92 
L 536.789681 -34.92 
L 536.2819 -34.92 
L 535.77412 -34.92 
L 535.266339 -34.92 
L 534.758559 -34.92 
L 534.250778 -34.92 
L 533.742998 -34.92 
L 533.235217 -34.92 
L 532.727437 -34.92 
L 532.219656 -34.92 
L 531.711876 -34.92 
L 531.204095 -34.92 
L 530.696314 -34.92 
L 530.188534 -34.92 
L 529.680753 -34.92 
L 529.172973 -34.92 
L 528.665192 -34.92 
L 528.157412 -34.92 
L 527.649631 -34.92 
L 527.141851 -34.92 
L 526.63407 -34.92 
L 526.12629 -34.92 
L 525.618509 -34.92 
L 525.110729 -34.92 
L 524.602948 -34.92 
L 524.095168 -34.92 
L 523.587387 -34.92 
L 523.079607 -34.92 
L 522.571826 -34.92 
L 522.064046 -34.92 
L 521.556265 -34.92 
L 521.048485 -34.92 
L 520.540704 -34.92 
L 520.032924 -34.92 
L 519.525143 -34.92 
L 519.017363 -34.92 
L 518.509582 -34.92 
L 518.001802 -34.92 
L 517.494021 -34.92 
L 516.986241 -34.92 
L 516.47846 -34.92 
L 515.97068 -34.92 
L 515.462899 -34.92 
L 514.955119 -34.92 
L 514.447338 -34.92 
L 513.939558 -34.92 
L 513.431777 -34.92 
L 512.923997 -34.92 
L 512.416216 -34.92 
L 511.908436 -34.92 
L 511.400655 -34.92 
L 510.892875 -34.92 
L 510.385094 -34.92 
L 509.877314 -34.92 
L 509.369533 -34.92 
L 508.861753 -34.92 
L 508.353972 -34.92 
L 507.846192 -34.92 
L 507.338411 -34.92 
L 506.830631 -34.92 
L 506.32285 -34.92 
L 505.81507 -34.92 
L 505.307289 -34.92 
L 504.799509 -34.92 
L 504.291728 -34.92 
L 503.783948 -34.92 
L 503.276167 -34.92 
L 502.768387 -34.92 
L 502.260606 -34.92 
L 501.752826 -34.92 
L 501.245045 -34.92 
L 500.737265 -34.92 
L 500.229484 -34.92 
L 499.721704 -34.92 
L 499.213923 -34.92 
L 498.706143 -34.92 
L 498.198362 -34.92 
L 497.690581 -34.92 
L 497.182801 -34.92 
L 496.67502 -34.92 
L 496.16724 -34.92 
L 495.659459 -34.92 
L 495.151679 -34.92 
L 494.643898 -34.92 
L 494.136118 -34.92 
L 493.628337 -34.92 
L 493.120557 -34.92 
L 492.612776 -34.92 
L 492.104996 -34.92 
L 491.597215 -34.92 
L 491.089435 -34.92 
L 490.581654 -34.92 
L 490.073874 -34.92 
L 489.566093 -34.92 
L 489.058313 -34.92 
L 488.550532 -34.92 
L 488.042752 -34.92 
L 487.534971 -34.92 
L 487.027191 -34.92 
L 486.51941 -34.92 
L 486.01163 -34.92 
L 485.503849 -34.92 
L 484.996069 -34.92 
L 484.488288 -34.92 
L 483.980508 -34.92 
L 483.472727 -34.92 
L 482.964947 -34.92 
L 482.457166 -34.92 
L 481.949386 -34.92 
L 481.441605 -34.92 
L 480.933825 -34.92 
L 480.426044 -34.92 
L 479.918264 -34.92 
L 479.410483 -34.92 
L 478.902703 -34.92 
L 478.394922 -34.92 
L 477.887142 -34.92 
L 477.379361 -34.92 
L 476.871581 -34.92 
L 476.3638 -34.92 
L 475.85602 -34.92 
L 475.348239 -34.92 
L 474.840459 -34.92 
L 474.332678 -34.92 
L 473.824898 -34.92 
L 473.317117 -34.92 
L 472.809337 -34.92 
L 472.301556 -34.92 
L 471.793776 -34.92 
L 471.285995 -34.92 
L 470.778215 -34.92 
L 470.270434 -34.92 
L 469.762654 -34.92 
L 469.254873 -34.92 
L 468.747093 -34.92 
L 468.239312 -34.92 
L 467.731532 -34.92 
L 467.223751 -34.92 
L 466.715971 -34.92 
L 466.20819 -34.92 
L 465.70041 -34.92 
L 465.192629 -34.92 
L 464.684848 -34.92 
L 464.177068 -34.92 
L 463.669287 -34.92 
L 463.161507 -34.92 
L 462.653726 -34.92 
L 462.145946 -34.92 
L 461.638165 -34.92 
L 461.130385 -34.92 
L 460.622604 -34.92 
L 460.114824 -34.92 
L 459.607043 -34.92 
L 459.099263 -34.92 
L 458.591482 -34.92 
L 458.083702 -34.92 
L 457.575921 -34.92 
L 457.068141 -34.92 
L 456.56036 -34.92 
L 456.05258 -34.92 
L 455.544799 -34.92 
L 455.037019 -34.92 
L 454.529238 -34.92 
L 454.021458 -34.92 
L 453.513677 -34.92 
L 453.005897 -34.92 
L 452.498116 -34.92 
L 451.990336 -34.92 
L 451.482555 -34.92 
L 450.974775 -34.92 
L 450.466994 -34.92 
L 449.959214 -34.92 
L 449.451433 -34.92 
L 448.943653 -34.92 
L 448.435872 -34.92 
L 447.928092 -34.92 
L 447.420311 -34.92 
L 446.912531 -34.92 
L 446.40475 -34.92 
L 445.89697 -34.92 
L 445.389189 -34.92 
L 444.881409 -34.92 
L 444.373628 -34.92 
L 443.865848 -34.92 
L 443.358067 -34.92 
L 442.850287 -34.92 
L 442.342506 -34.92 
L 441.834726 -34.92 
L 441.326945 -34.92 
L 440.819165 -34.92 
L 440.311384 -34.92 
L 439.803604 -34.92 
L 439.295823 -34.92 
L 438.788043 -34.92 
L 438.280262 -34.92 
L 437.772482 -34.92 
L 437.264701 -34.92 
L 436.756921 -34.92 
L 436.24914 -34.92 
L 435.74136 -34.92 
L 435.233579 -34.92 
L 434.725799 -34.92 
L 434.218018 -34.92 
L 433.710238 -34.92 
L 433.202457 -34.92 
L 432.694676 -34.92 
L 432.186896 -34.92 
L 431.679115 -34.92 
L 431.171335 -34.92 
L 430.663554 -34.92 
L 430.155774 -34.92 
L 429.647993 -34.92 
L 429.140213 -34.92 
L 428.632432 -34.92 
L 428.124652 -34.92 
L 427.616871 -34.92 
L 427.109091 -34.92 
L 426.60131 -34.92 
L 426.09353 -34.92 
L 425.585749 -34.92 
L 425.077969 -34.92 
L 424.570188 -34.92 
L 424.062408 -34.92 
L 423.554627 -34.92 
L 423.046847 -34.92 
L 422.539066 -34.92 
L 422.031286 -34.92 
L 421.523505 -34.92 
L 421.015725 -34.92 
L 420.507944 -34.92 
L 420.000164 -34.92 
L 419.492383 -34.92 
L 418.984603 -34.92 
L 418.476822 -34.92 
L 417.969042 -34.92 
L 417.461261 -34.92 
L 416.953481 -34.92 
L 416.4457 -34.92 
L 415.93792 -34.92 
L 415.430139 -34.92 
L 414.922359 -34.92 
L 414.414578 -34.92 
L 413.906798 -34.92 
L 413.399017 -34.92 
L 412.891237 -34.92 
L 412.383456 -34.92 
L 411.875676 -34.92 
L 411.367895 -34.92 
L 410.860115 -34.92 
L 410.352334 -34.92 
L 409.844554 -34.92 
L 409.336773 -34.92 
L 408.828993 -34.92 
L 408.321212 -34.92 
L 407.813432 -34.92 
L 407.305651 -34.92 
L 406.797871 -34.92 
L 406.29009 -34.92 
L 405.78231 -34.92 
L 405.274529 -34.92 
L 404.766749 -34.92 
L 404.258968 -34.92 
L 403.751188 -34.92 
L 403.243407 -34.92 
L 402.735627 -34.92 
L 402.227846 -34.92 
L 401.720066 -34.92 
L 401.212285 -34.92 
L 400.704505 -34.92 
L 400.196724 -34.92 
L 399.688943 -34.92 
L 399.181163 -34.92 
L 398.673382 -34.92 
L 398.165602 -34.92 
L 397.657821 -34.92 
L 397.150041 -34.92 
L 396.64226 -34.92 
L 396.13448 -34.92 
L 395.626699 -34.92 
L 395.118919 -34.92 
L 394.611138 -34.92 
L 394.103358 -34.92 
L 393.595577 -34.92 
L 393.087797 -34.92 
L 392.580016 -34.92 
L 392.072236 -34.92 
L 391.564455 -34.92 
L 391.056675 -34.92 
L 390.548894 -34.92 
L 390.041114 -34.92 
L 389.533333 -34.92 
L 389.025553 -34.92 
L 388.517772 -34.92 
L 388.009992 -34.92 
L 387.502211 -34.92 
L 386.994431 -34.92 
L 386.48665 -34.92 
L 385.97887 -34.92 
L 385.471089 -34.92 
L 384.963309 -34.92 
L 384.455528 -34.92 
L 383.947748 -34.92 
L 383.439967 -34.92 
L 382.932187 -34.92 
L 382.424406 -34.92 
L 381.916626 -34.92 
L 381.408845 -34.92 
L 380.901065 -34.92 
L 380.393284 -34.92 
L 379.885504 -34.92 
L 379.377723 -34.92 
L 378.869943 -34.92 
L 378.362162 -34.92 
L 377.854382 -34.92 
L 377.346601 -34.92 
L 376.838821 -34.92 
L 376.33104 -34.92 
L 375.82326 -34.92 
L 375.315479 -34.92 
L 374.807699 -34.92 
L 374.299918 -34.92 
L 373.792138 -34.92 
L 373.284357 -34.92 
L 372.776577 -34.92 
L 372.268796 -34.92 
L 371.761016 -34.92 
L 371.253235 -34.92 
L 370.745455 -34.92 
L 370.237674 -34.92 
L 369.729894 -34.92 
L 369.222113 -34.92 
L 368.714333 -34.92 
L 368.206552 -34.92 
L 367.698771 -34.92 
L 367.190991 -34.92 
L 366.68321 -34.92 
L 366.17543 -34.92 
L 365.667649 -34.92 
L 365.159869 -34.92 
L 364.652088 -34.92 
L 364.144308 -34.92 
L 363.636527 -34.92 
L 363.128747 -34.92 
L 362.620966 -34.92 
L 362.113186 -34.92 
L 361.605405 -34.92 
L 361.097625 -34.92 
L 360.589844 -34.92 
L 360.082064 -34.92 
L 359.574283 -34.92 
L 359.066503 -34.92 
L 358.558722 -34.92 
L 358.050942 -34.92 
L 357.543161 -34.92 
L 357.035381 -34.92 
L 356.5276 -34.92 
L 356.01982 -34.92 
L 355.512039 -34.92 
L 355.004259 -34.92 
L 354.496478 -34.92 
L 353.988698 -34.92 
L 353.480917 -34.92 
L 352.973137 -34.92 
L 352.465356 -34.92 
L 351.957576 -34.92 
L 351.449795 -34.92 
L 350.942015 -34.92 
L 350.434234 -34.92 
L 349.926454 -34.92 
L 349.418673 -34.92 
L 348.910893 -34.92 
L 348.403112 -34.92 
L 347.895332 -34.92 
L 347.387551 -34.92 
L 346.879771 -34.92 
L 346.37199 -34.92 
L 345.86421 -34.92 
L 345.356429 -34.92 
L 344.848649 -34.92 
L 344.340868 -34.92 
L 343.833088 -34.92 
L 343.325307 -34.92 
L 342.817527 -34.92 
L 342.309746 -34.92 
L 341.801966 -34.92 
L 341.294185 -34.92 
L 340.786405 -34.92 
L 340.278624 -34.92 
L 339.770844 -34.92 
L 339.263063 -34.92 
L 338.755283 -34.92 
L 338.247502 -34.92 
L 337.739722 -34.92 
L 337.231941 -34.92 
L 336.724161 -34.92 
L 336.21638 -34.92 
L 335.7086 -34.92 
L 335.200819 -34.92 
L 334.693038 -34.92 
L 334.185258 -34.92 
L 333.677477 -34.92 
L 333.169697 -34.92 
L 332.661916 -34.92 
L 332.154136 -34.92 
L 331.646355 -34.92 
L 331.138575 -34.92 
L 330.630794 -34.92 
L 330.123014 -34.92 
L 329.615233 -34.92 
L 329.107453 -34.92 
L 328.599672 -34.92 
L 328.091892 -34.92 
L 327.584111 -34.92 
L 327.076331 -34.92 
L 326.56855 -34.92 
L 326.06077 -34.92 
L 325.552989 -34.92 
L 325.045209 -34.92 
L 324.537428 -34.92 
L 324.029648 -34.92 
L 323.521867 -34.92 
L 323.014087 -34.92 
L 322.506306 -34.92 
L 321.998526 -34.92 
L 321.490745 -34.92 
L 320.982965 -34.92 
L 320.475184 -34.92 
L 319.967404 -34.92 
L 319.459623 -34.92 
L 318.951843 -34.92 
L 318.444062 -34.92 
L 317.936282 -34.92 
L 317.428501 -34.92 
L 316.920721 -34.92 
L 316.41294 -34.92 
L 315.90516 -34.92 
L 315.397379 -34.92 
L 314.889599 -34.92 
L 314.381818 -34.92 
L 313.874038 -34.92 
L 313.366257 -34.92 
L 312.858477 -34.92 
L 312.350696 -34.92 
L 311.842916 -34.92 
L 311.335135 -34.92 
L 310.827355 -34.92 
L 310.319574 -34.92 
L 309.811794 -34.92 
L 309.304013 -34.92 
L 308.796233 -34.92 
L 308.288452 -34.92 
L 307.780672 -34.92 
L 307.272891 -34.92 
L 306.765111 -34.92 
L 306.25733 -34.92 
L 305.74955 -34.92 
L 305.241769 -34.92 
L 304.733989 -34.92 
L 304.226208 -34.92 
L 303.718428 -34.92 
L 303.210647 -34.92 
L 302.702867 -34.92 
L 302.195086 -34.92 
L 301.687305 -34.92 
L 301.179525 -34.92 
L 300.671744 -34.92 
L 300.163964 -34.92 
L 299.656183 -34.92 
L 299.148403 -34.92 
L 298.640622 -34.92 
L 298.132842 -34.92 
L 297.625061 -34.92 
L 297.117281 -34.92 
L 296.6095 -34.92 
L 296.10172 -34.92 
L 295.593939 -34.92 
L 295.086159 -34.92 
L 294.578378 -34.92 
L 294.070598 -34.92 
L 293.562817 -34.92 
L 293.055037 -34.92 
L 292.547256 -34.92 
L 292.039476 -34.92 
L 291.531695 -34.92 
L 291.023915 -34.92 
L 290.516134 -34.92 
L 290.008354 -34.92 
L 289.500573 -34.92 
L 288.992793 -34.92 
L 288.485012 -34.92 
L 287.977232 -34.92 
L 287.469451 -34.92 
L 286.961671 -34.92 
L 286.45389 -34.92 
L 285.94611 -34.92 
L 285.438329 -34.92 
L 284.930549 -34.92 
L 284.422768 -34.92 
L 283.914988 -34.92 
L 283.407207 -34.92 
L 282.899427 -34.92 
L 282.391646 -34.92 
L 281.883866 -34.92 
L 281.376085 -34.92 
L 280.868305 -34.92 
L 280.360524 -34.92 
L 279.852744 -34.92 
L 279.344963 -34.92 
L 278.837183 -34.92 
L 278.329402 -34.92 
L 277.821622 -34.92 
L 277.313841 -34.92 
L 276.806061 -34.92 
L 276.29828 -34.92 
L 275.7905 -34.92 
L 275.282719 -34.92 
L 274.774939 -34.92 
L 274.267158 -34.92 
L 273.759378 -34.92 
L 273.251597 -34.92 
L 272.743817 -34.92 
L 272.236036 -34.92 
L 271.728256 -34.92 
L 271.220475 -34.92 
L 270.712695 -34.92 
L 270.204914 -34.92 
L 269.697133 -34.92 
L 269.189353 -34.92 
L 268.681572 -34.92 
L 268.173792 -34.92 
L 267.666011 -34.92 
L 267.158231 -34.92 
L 266.65045 -34.92 
L 266.14267 -34.92 
L 265.634889 -34.92 
L 265.127109 -34.92 
L 264.619328 -34.92 
L 264.111548 -34.92 
L 263.603767 -34.92 
L 263.095987 -34.92 
L 262.588206 -34.92 
L 262.080426 -34.92 
L 261.572645 -34.92 
L 261.064865 -34.92 
L 260.557084 -34.92 
L 260.049304 -34.92 
L 259.541523 -34.92 
L 259.033743 -34.92 
L 258.525962 -34.92 
L 258.018182 -34.92 
L 257.510401 -34.92 
L 257.002621 -34.92 
L 256.49484 -34.92 
L 255.98706 -34.92 
L 255.479279 -34.92 
L 254.971499 -34.92 
L 254.463718 -34.92 
L 253.955938 -34.92 
L 253.448157 -34.92 
L 252.940377 -34.92 
L 252.432596 -34.92 
L 251.924816 -34.92 
L 251.417035 -34.92 
L 250.909255 -34.92 
L 250.401474 -34.92 
L 249.893694 -34.92 
L 249.385913 -34.92 
L 248.878133 -34.92 
L 248.370352 -34.92 
L 247.862572 -34.92 
L 247.354791 -34.92 
L 246.847011 -34.92 
L 246.33923 -34.92 
L 245.83145 -34.92 
L 245.323669 -34.92 
L 244.815889 -34.92 
L 244.308108 -34.92 
L 243.800328 -34.92 
L 243.292547 -34.92 
L 242.784767 -34.92 
L 242.276986 -34.92 
L 241.769206 -34.92 
L 241.261425 -34.92 
L 240.753645 -34.92 
L 240.245864 -34.92 
L 239.738084 -34.92 
L 239.230303 -34.92 
L 238.722523 -34.92 
L 238.214742 -34.92 
L 237.706962 -34.92 
L 237.199181 -34.92 
L 236.6914 -34.92 
L 236.18362 -34.92 
L 235.675839 -34.92 
L 235.168059 -34.92 
L 234.660278 -34.92 
L 234.152498 -34.92 
L 233.644717 -34.92 
L 233.136937 -34.92 
L 232.629156 -34.92 
L 232.121376 -34.92 
L 231.613595 -34.92 
L 231.105815 -34.92 
L 230.598034 -34.92 
L 230.090254 -34.92 
L 229.582473 -34.92 
L 229.074693 -34.92 
L 228.566912 -34.92 
L 228.059132 -34.92 
L 227.551351 -34.92 
L 227.043571 -34.92 
L 226.53579 -34.92 
L 226.02801 -34.92 
L 225.520229 -34.92 
L 225.012449 -34.92 
L 224.504668 -34.92 
L 223.996888 -34.92 
L 223.489107 -34.92 
L 222.981327 -34.92 
L 222.473546 -34.92 
L 221.965766 -34.92 
L 221.457985 -34.92 
L 220.950205 -34.92 
L 220.442424 -34.92 
L 219.934644 -34.92 
L 219.426863 -34.92 
L 218.919083 -34.92 
L 218.411302 -34.92 
L 217.903522 -34.92 
L 217.395741 -34.92 
L 216.887961 -34.92 
L 216.38018 -34.92 
L 215.8724 -34.92 
L 215.364619 -34.92 
L 214.856839 -34.92 
L 214.349058 -34.92 
L 213.841278 -34.92 
L 213.333497 -34.92 
L 212.825717 -34.92 
L 212.317936 -34.92 
L 211.810156 -34.92 
L 211.302375 -34.92 
L 210.794595 -34.92 
L 210.286814 -34.92 
L 209.779034 -34.92 
L 209.271253 -34.92 
L 208.763473 -34.92 
L 208.255692 -34.92 
L 207.747912 -34.92 
L 207.240131 -34.92 
L 206.732351 -34.92 
L 206.22457 -34.92 
L 205.71679 -34.92 
L 205.209009 -34.92 
L 204.701229 -34.92 
L 204.193448 -34.92 
L 203.685667 -34.92 
L 203.177887 -34.92 
L 202.670106 -34.92 
L 202.162326 -34.92 
L 201.654545 -34.92 
L 201.146765 -34.92 
L 200.638984 -34.92 
L 200.131204 -34.92 
L 199.623423 -34.92 
L 199.115643 -34.92 
L 198.607862 -34.92 
L 198.100082 -34.92 
L 197.592301 -34.92 
L 197.084521 -34.92 
L 196.57674 -34.92 
L 196.06896 -34.92 
L 195.561179 -34.92 
L 195.053399 -34.92 
L 194.545618 -34.92 
L 194.037838 -34.92 
L 193.530057 -34.92 
L 193.022277 -34.92 
L 192.514496 -34.92 
L 192.006716 -34.92 
L 191.498935 -34.92 
L 190.991155 -34.92 
L 190.483374 -34.92 
L 189.975594 -34.92 
L 189.467813 -34.92 
L 188.960033 -34.92 
L 188.452252 -34.92 
L 187.944472 -34.92 
L 187.436691 -34.92 
L 186.928911 -34.92 
L 186.42113 -34.92 
L 185.91335 -34.92 
L 185.405569 -34.92 
L 184.897789 -34.92 
L 184.390008 -34.92 
L 183.882228 -34.92 
L 183.374447 -34.92 
L 182.866667 -34.92 
L 182.358886 -34.92 
L 181.851106 -34.92 
L 181.343325 -34.92 
L 180.835545 -34.92 
L 180.327764 -34.92 
L 179.819984 -34.92 
L 179.312203 -34.92 
L 178.804423 -34.92 
L 178.296642 -34.92 
L 177.788862 -34.92 
L 177.281081 -34.92 
L 176.773301 -34.92 
L 176.26552 -34.92 
L 175.75774 -34.92 
L 175.249959 -34.92 
L 174.742179 -34.92 
L 174.234398 -34.92 
L 173.726618 -34.92 
L 173.218837 -34.92 
L 172.711057 -34.92 
L 172.203276 -34.92 
L 171.695495 -34.92 
L 171.187715 -34.92 
L 170.679934 -34.92 
L 170.172154 -34.92 
L 169.664373 -34.92 
L 169.156593 -34.92 
L 168.648812 -34.92 
L 168.141032 -34.92 
L 167.633251 -34.92 
L 167.125471 -34.92 
L 166.61769 -34.92 
L 166.10991 -34.92 
L 165.602129 -34.92 
L 165.094349 -34.92 
L 164.586568 -34.92 
L 164.078788 -34.92 
L 163.571007 -34.92 
L 163.063227 -34.92 
L 162.555446 -34.92 
L 162.047666 -34.92 
L 161.539885 -34.92 
L 161.032105 -34.92 
L 160.524324 -34.92 
L 160.016544 -34.92 
L 159.508763 -34.92 
L 159.000983 -34.92 
L 158.493202 -34.92 
L 157.985422 -34.92 
L 157.477641 -34.92 
L 156.969861 -34.92 
L 156.46208 -34.92 
L 155.9543 -34.92 
L 155.446519 -34.92 
L 154.938739 -34.92 
L 154.430958 -34.92 
L 153.923178 -34.92 
L 153.415397 -34.92 
L 152.907617 -34.92 
L 152.399836 -34.92 
L 151.892056 -34.92 
L 151.384275 -34.92 
L 150.876495 -34.92 
L 150.368714 -34.92 
L 149.860934 -34.92 
L 149.353153 -34.92 
L 148.845373 -34.92 
L 148.337592 -34.92 
L 147.829812 -34.92 
L 147.322031 -34.92 
L 146.814251 -34.92 
L 146.30647 -34.92 
L 145.79869 -34.92 
L 145.290909 -34.92 
L 144.783129 -34.92 
L 144.275348 -34.92 
L 143.767568 -34.92 
L 143.259787 -34.92 
L 142.752007 -34.92 
L 142.244226 -34.92 
L 141.736446 -34.92 
L 141.228665 -34.92 
L 140.720885 -34.92 
L 140.213104 -34.92 
L 139.705324 -34.92 
L 139.197543 -34.92 
L 138.689762 -34.92 
L 138.181982 -34.92 
L 137.674201 -34.92 
L 137.166421 -34.92 
L 136.65864 -34.92 
L 136.15086 -34.92 
L 135.643079 -34.92 
L 135.135299 -34.92 
L 134.627518 -34.92 
L 134.119738 -34.92 
L 133.611957 -34.92 
L 133.104177 -34.92 
L 132.596396 -34.92 
L 132.088616 -34.92 
L 131.580835 -34.92 
L 131.073055 -34.92 
L 130.565274 -34.92 
L 130.057494 -34.92 
L 129.549713 -34.92 
L 129.041933 -34.92 
L 128.534152 -34.92 
L 128.026372 -34.92 
L 127.518591 -34.92 
L 127.010811 -34.92 
L 126.50303 -34.92 
L 125.99525 -34.92 
L 125.487469 -34.92 
L 124.979689 -34.92 
L 124.471908 -34.92 
L 123.964128 -34.92 
L 123.456347 -34.92 
L 122.948567 -34.92 
L 122.440786 -34.92 
L 121.933006 -34.92 
L 121.425225 -34.92 
L 120.917445 -34.92 
L 120.409664 -34.92 
L 119.901884 -34.92 
L 119.394103 -34.92 
L 118.886323 -34.92 
L 118.378542 -34.92 
L 117.870762 -34.92 
L 117.362981 -34.92 
L 116.855201 -34.92 
L 116.34742 -34.92 
L 115.83964 -34.92 
L 115.331859 -34.92 
L 114.824079 -34.92 
L 114.316298 -34.92 
L 113.808518 -34.92 
L 113.300737 -34.92 
L 112.792957 -34.92 
L 112.285176 -34.92 
L 111.777396 -34.92 
L 111.269615 -34.92 
L 110.761835 -34.92 
L 110.254054 -34.92 
L 109.746274 -34.92 
L 109.238493 -34.92 
L 108.730713 -34.92 
L 108.222932 -34.92 
L 107.715152 -34.92 
L 107.207371 -34.92 
L 106.69959 -34.92 
L 106.19181 -34.92 
L 105.684029 -34.92 
L 105.176249 -34.92 
L 104.668468 -34.92 
L 104.160688 -34.92 
L 103.652907 -34.92 
L 103.145127 -34.92 
L 102.637346 -34.92 
L 102.129566 -34.92 
L 101.621785 -34.92 
L 101.114005 -34.92 
L 100.606224 -34.92 
L 100.098444 -34.92 
L 99.590663 -34.92 
L 99.082883 -34.92 
L 98.575102 -34.92 
L 98.067322 -34.92 
L 97.559541 -34.92 
L 97.051761 -34.92 
L 96.54398 -34.92 
L 96.0362 -34.92 
L 95.528419 -34.92 
L 95.020639 -34.92 
L 94.512858 -34.92 
L 94.005078 -34.92 
L 93.497297 -34.92 
L 92.989517 -34.92 
L 92.481736 -34.92 
L 91.973956 -34.92 
L 91.466175 -34.92 
L 90.958395 -34.92 
L 90.450614 -34.92 
L 89.942834 -34.92 
L 89.435053 -34.92 
L 88.927273 -34.92 
L 88.419492 -34.92 
L 87.911712 -34.92 
L 87.403931 -34.92 
L 86.896151 -34.92 
L 86.38837 -34.92 
L 85.88059 -34.92 
L 85.372809 -34.92 
L 84.865029 -34.92 
L 84.357248 -34.92 
L 83.849468 -34.92 
L 83.341687 -34.92 
L 82.833907 -34.92 
L 82.326126 -34.92 
L 81.818346 -34.92 
L 81.310565 -34.92 
L 80.802785 -34.92 
L 80.295004 -34.92 
L 79.787224 -34.92 
L 79.279443 -34.92 
L 78.771663 -34.92 
L 78.263882 -34.92 
L 77.756102 -34.92 
L 77.248321 -34.92 
L 76.740541 -34.92 
L 76.23276 -34.92 
L 75.72498 -34.92 
L 75.217199 -34.92 
L 74.709419 -34.92 
L 74.201638 -34.92 
L 73.693857 -34.92 
L 73.186077 -34.92 
L 72.678296 -34.92 
L 72.170516 -34.92 
L 71.662735 -34.92 
L 71.154955 -34.92 
L 70.647174 -34.92 
L 70.139394 -34.92 
L 69.631613 -34.92 
L 69.123833 -34.92 
L 68.616052 -34.92 
L 68.108272 -34.92 
L 67.600491 -34.92 
L 67.092711 -34.92 
L 66.58493 -34.92 
L 66.07715 -34.92 
L 65.569369 -34.92 
L 65.061589 -34.92 
L 64.553808 -34.92 
L 64.046028 -34.92 
L 63.538247 -34.92 
L 63.030467 -34.92 
L 62.522686 -34.92 
L 62.014906 -34.92 
L 61.507125 -34.92 
L 60.999345 -34.92 
L 60.491564 -34.92 
L 59.983784 -34.92 
L 59.476003 -34.92 
L 58.968223 -34.92 
L 58.460442 -34.92 
L 57.952662 -34.92 
L 57.444881 -34.92 
L 56.937101 -34.92 
L 56.42932 -34.92 
L 55.92154 -34.92 
L 55.413759 -34.92 
L 54.905979 -34.92 
L 54.398198 -34.92 
L 53.890418 -34.92 
L 53.382637 -34.92 
L 52.874857 -34.92 
L 52.367076 -34.92 
L 51.859296 -34.92 
L 51.351515 -34.92 
L 50.843735 -34.92 
L 50.335954 -34.92 
L 49.828174 -34.92 
L 49.320393 -34.92 
L 48.812613 -34.92 
L 48.304832 -34.92 
L 47.797052 -34.92 
L 47.289271 -34.92 
L 46.781491 -34.92 
L 46.27371 -34.92 
L 45.76593 -34.92 
L 45.258149 -34.92 
L 44.750369 -34.92 
L 44.242588 -34.92 
L 43.734808 -34.92 
L 43.227027 -34.92 
L 42.719247 -34.92 
L 42.211466 -34.92 
L 41.703686 -34.92 
L 41.195905 -34.92 
L 40.688124 -34.92 
L 40.180344 -34.92 
L 39.672563 -34.92 
L 39.164783 -34.92 
L 38.657002 -34.92 
L 38.149222 -34.92 
L 37.641441 -34.92 
L 37.133661 -34.92 
L 36.62588 -34.92 
L 36.1181 -34.92 
L 35.610319 -34.92 
L 35.102539 -34.92 
L 34.594758 -34.92 
L 34.086978 -34.92 
L 33.579197 -34.92 
L 33.071417 -34.92 
L 32.563636 -34.92 
z
" style="stroke: #1f77b4; stroke-opacity: 0.7"/>
    </defs>
    <g clip-path="url(#p39924d7340)">
     <use xlink:href="#mb1d5deff5a" x="0" y="442.325" style="fill: #1f77b4; fill-opacity: 0.7; stroke: #1f77b4; stroke-opacity: 0.7"/>
    </g>
   </g>
   <g id="PolyCollection_2">
    <defs>
     <path id="mf0bf77e56a" d="M 32.563636 -34.92 
L 32.563636 -38.00395 
L 33.071417 -38.041176 
L 33.579197 -38.07885 
L 34.086978 -38.116979 
L 34.594758 -38.155568 
L 35.102539 -38.194622 
L 35.610319 -38.234147 
L 36.1181 -38.274148 
L 36.62588 -38.314631 
L 37.133661 -38.355602 
L 37.641441 -38.397068 
L 38.149222 -38.439033 
L 38.657002 -38.481504 
L 39.164783 -38.524487 
L 39.672563 -38.567988 
L 40.180344 -38.612013 
L 40.688124 -38.656568 
L 41.195905 -38.701661 
L 41.703686 -38.747297 
L 42.211466 -38.793484 
L 42.719247 -38.840226 
L 43.227027 -38.887532 
L 43.734808 -38.935408 
L 44.242588 -38.983861 
L 44.750369 -39.032898 
L 45.258149 -39.082525 
L 45.76593 -39.132751 
L 46.27371 -39.183581 
L 46.781491 -39.235024 
L 47.289271 -39.287086 
L 47.797052 -39.339776 
L 48.304832 -39.3931 
L 48.812613 -39.447067 
L 49.320393 -39.501684 
L 49.828174 -39.556958 
L 50.335954 -39.612898 
L 50.843735 -39.669512 
L 51.351515 -39.726808 
L 51.859296 -39.784794 
L 52.367076 -39.843478 
L 52.874857 -39.902868 
L 53.382637 -39.962974 
L 53.890418 -40.023803 
L 54.398198 -40.085365 
L 54.905979 -40.147668 
L 55.413759 -40.210721 
L 55.92154 -40.274532 
L 56.42932 -40.339113 
L 56.937101 -40.40447 
L 57.444881 -40.470614 
L 57.952662 -40.537554 
L 58.460442 -40.6053 
L 58.968223 -40.673861 
L 59.476003 -40.743247 
L 59.983784 -40.813468 
L 60.491564 -40.884534 
L 60.999345 -40.956456 
L 61.507125 -41.029242 
L 62.014906 -41.102904 
L 62.522686 -41.177452 
L 63.030467 -41.252897 
L 63.538247 -41.32925 
L 64.046028 -41.406521 
L 64.553808 -41.484721 
L 65.061589 -41.563862 
L 65.569369 -41.643955 
L 66.07715 -41.725011 
L 66.58493 -41.807041 
L 67.092711 -41.890058 
L 67.600491 -41.974073 
L 68.108272 -42.059098 
L 68.616052 -42.145145 
L 69.123833 -42.232227 
L 69.631613 -42.320355 
L 70.139394 -42.409543 
L 70.647174 -42.499802 
L 71.154955 -42.591146 
L 71.662735 -42.683588 
L 72.170516 -42.777141 
L 72.678296 -42.871818 
L 73.186077 -42.967632 
L 73.693857 -43.064598 
L 74.201638 -43.162728 
L 74.709419 -43.262037 
L 75.217199 -43.362539 
L 75.72498 -43.464248 
L 76.23276 -43.567178 
L 76.740541 -43.671345 
L 77.248321 -43.776762 
L 77.756102 -43.883445 
L 78.263882 -43.991409 
L 78.771663 -44.100669 
L 79.279443 -44.21124 
L 79.787224 -44.323139 
L 80.295004 -44.43638 
L 80.802785 -44.550981 
L 81.310565 -44.666957 
L 81.818346 -44.784324 
L 82.326126 -44.9031 
L 82.833907 -45.0233 
L 83.341687 -45.144943 
L 83.849468 -45.268044 
L 84.357248 -45.392622 
L 84.865029 -45.518694 
L 85.372809 -45.646278 
L 85.88059 -45.775391 
L 86.38837 -45.906053 
L 86.896151 -46.038281 
L 87.403931 -46.172093 
L 87.911712 -46.30751 
L 88.419492 -46.44455 
L 88.927273 -46.583232 
L 89.435053 -46.723575 
L 89.942834 -46.8656 
L 90.450614 -47.009327 
L 90.958395 -47.154775 
L 91.466175 -47.301965 
L 91.973956 -47.450917 
L 92.481736 -47.601654 
L 92.989517 -47.754195 
L 93.497297 -47.908562 
L 94.005078 -48.064778 
L 94.512858 -48.222863 
L 95.020639 -48.38284 
L 95.528419 -48.544731 
L 96.0362 -48.708559 
L 96.54398 -48.874348 
L 97.051761 -49.042119 
L 97.559541 -49.211897 
L 98.067322 -49.383706 
L 98.575102 -49.557569 
L 99.082883 -49.73351 
L 99.590663 -49.911555 
L 100.098444 -50.091728 
L 100.606224 -50.274055 
L 101.114005 -50.45856 
L 101.621785 -50.64527 
L 102.129566 -50.83421 
L 102.637346 -51.025407 
L 103.145127 -51.218887 
L 103.652907 -51.414678 
L 104.160688 -51.612807 
L 104.668468 -51.813301 
L 105.176249 -52.016188 
L 105.684029 -52.221497 
L 106.19181 -52.429255 
L 106.69959 -52.639492 
L 107.207371 -52.852237 
L 107.715152 -53.06752 
L 108.222932 -53.285369 
L 108.730713 -53.505817 
L 109.238493 -53.728892 
L 109.746274 -53.954626 
L 110.254054 -54.183051 
L 110.761835 -54.414197 
L 111.269615 -54.648097 
L 111.777396 -54.884783 
L 112.285176 -55.124288 
L 112.792957 -55.366644 
L 113.300737 -55.611886 
L 113.808518 -55.860048 
L 114.316298 -56.111162 
L 114.824079 -56.365264 
L 115.331859 -56.622389 
L 115.83964 -56.882573 
L 116.34742 -57.14585 
L 116.855201 -57.412258 
L 117.362981 -57.681833 
L 117.870762 -57.954611 
L 118.378542 -58.230631 
L 118.886323 -58.50993 
L 119.394103 -58.792546 
L 119.901884 -59.078518 
L 120.409664 -59.367886 
L 120.917445 -59.660688 
L 121.425225 -59.956965 
L 121.933006 -60.256757 
L 122.440786 -60.560106 
L 122.948567 -60.867052 
L 123.456347 -61.177638 
L 123.964128 -61.491905 
L 124.471908 -61.809897 
L 124.979689 -62.131657 
L 125.487469 -62.457228 
L 125.99525 -62.786654 
L 126.50303 -63.119982 
L 127.010811 -63.457255 
L 127.518591 -63.798519 
L 128.026372 -64.143821 
L 128.534152 -64.493207 
L 129.041933 -64.846724 
L 129.549713 -65.204421 
L 130.057494 -65.566345 
L 130.565274 -65.932546 
L 131.073055 -66.303073 
L 131.580835 -66.677975 
L 132.088616 -67.057303 
L 132.596396 -67.441108 
L 133.104177 -67.829442 
L 133.611957 -68.222357 
L 134.119738 -68.619905 
L 134.627518 -69.022139 
L 135.135299 -69.429114 
L 135.643079 -69.840884 
L 136.15086 -70.257504 
L 136.65864 -70.67903 
L 137.166421 -71.105517 
L 137.674201 -71.537022 
L 138.181982 -71.973604 
L 138.689762 -72.415319 
L 139.197543 -72.862227 
L 139.705324 -73.314387 
L 140.213104 -73.771859 
L 140.720885 -74.234704 
L 141.228665 -74.702982 
L 141.736446 -75.176755 
L 142.244226 -75.656087 
L 142.752007 -76.141039 
L 143.259787 -76.631677 
L 143.767568 -77.128064 
L 144.275348 -77.630267 
L 144.783129 -78.138349 
L 145.290909 -78.65238 
L 145.79869 -79.172425 
L 146.30647 -79.698552 
L 146.814251 -80.230831 
L 147.322031 -80.769331 
L 147.829812 -81.314121 
L 148.337592 -81.865273 
L 148.845373 -82.422859 
L 149.353153 -82.986951 
L 149.860934 -83.557622 
L 150.368714 -84.134945 
L 150.876495 -84.718996 
L 151.384275 -85.30985 
L 151.892056 -85.907583 
L 152.399836 -86.512271 
L 152.907617 -87.123994 
L 153.415397 -87.742829 
L 153.923178 -88.368855 
L 154.430958 -89.002153 
L 154.938739 -89.642804 
L 155.446519 -90.29089 
L 155.9543 -90.946492 
L 156.46208 -91.609695 
L 156.969861 -92.280583 
L 157.477641 -92.95924 
L 157.985422 -93.645753 
L 158.493202 -94.340209 
L 159.000983 -95.042695 
L 159.508763 -95.7533 
L 160.016544 -96.472113 
L 160.524324 -97.199225 
L 161.032105 -97.934726 
L 161.539885 -98.678709 
L 162.047666 -99.431266 
L 162.555446 -100.192492 
L 163.063227 -100.962482 
L 163.571007 -101.74133 
L 164.078788 -102.529134 
L 164.586568 -103.325991 
L 165.094349 -104.131999 
L 165.602129 -104.947259 
L 166.10991 -105.77187 
L 166.61769 -106.605933 
L 167.125471 -107.449552 
L 167.633251 -108.302828 
L 168.141032 -109.165867 
L 168.648812 -110.038773 
L 169.156593 -110.921653 
L 169.664373 -111.814614 
L 170.172154 -112.717763 
L 170.679934 -113.631211 
L 171.187715 -114.555066 
L 171.695495 -115.489441 
L 172.203276 -116.434447 
L 172.711057 -117.390197 
L 173.218837 -118.356806 
L 173.726618 -119.334388 
L 174.234398 -120.323061 
L 174.742179 -121.322941 
L 175.249959 -122.334146 
L 175.75774 -123.356796 
L 176.26552 -124.391012 
L 176.773301 -125.436913 
L 177.281081 -126.494624 
L 177.788862 -127.564268 
L 178.296642 -128.645968 
L 178.804423 -129.739852 
L 179.312203 -130.846045 
L 179.819984 -131.964675 
L 180.327764 -133.095872 
L 180.835545 -134.239764 
L 181.343325 -135.396484 
L 181.851106 -136.566164 
L 182.358886 -137.748935 
L 182.866667 -138.944934 
L 183.374447 -140.154294 
L 183.882228 -141.377154 
L 184.390008 -142.613649 
L 184.897789 -34.92 
L 185.405569 -34.92 
L 185.91335 -34.92 
L 186.42113 -34.92 
L 186.928911 -34.92 
L 187.436691 -34.92 
L 187.944472 -34.92 
L 188.452252 -34.92 
L 188.960033 -34.92 
L 189.467813 -34.92 
L 189.975594 -34.92 
L 190.483374 -34.92 
L 190.991155 -34.92 
L 191.498935 -34.92 
L 192.006716 -34.92 
L 192.514496 -34.92 
L 193.022277 -34.92 
L 193.530057 -34.92 
L 194.037838 -34.92 
L 194.545618 -34.92 
L 195.053399 -34.92 
L 195.561179 -34.92 
L 196.06896 -34.92 
L 196.57674 -34.92 
L 197.084521 -34.92 
L 197.592301 -34.92 
L 198.100082 -34.92 
L 198.607862 -34.92 
L 199.115643 -34.92 
L 199.623423 -34.92 
L 200.131204 -34.92 
L 200.638984 -34.92 
L 201.146765 -34.92 
L 201.654545 -34.92 
L 202.162326 -34.92 
L 202.670106 -34.92 
L 203.177887 -34.92 
L 203.685667 -34.92 
L 204.193448 -34.92 
L 204.701229 -34.92 
L 205.209009 -34.92 
L 205.71679 -34.92 
L 206.22457 -34.92 
L 206.732351 -34.92 
L 207.240131 -34.92 
L 207.747912 -34.92 
L 208.255692 -34.92 
L 208.763473 -34.92 
L 209.271253 -34.92 
L 209.779034 -34.92 
L 210.286814 -34.92 
L 210.794595 -34.92 
L 211.302375 -34.92 
L 211.810156 -34.92 
L 212.317936 -34.92 
L 212.825717 -34.92 
L 213.333497 -34.92 
L 213.841278 -34.92 
L 214.349058 -34.92 
L 214.856839 -34.92 
L 215.364619 -34.92 
L 215.8724 -34.92 
L 216.38018 -34.92 
L 216.887961 -34.92 
L 217.395741 -34.92 
L 217.903522 -34.92 
L 218.411302 -34.92 
L 218.919083 -34.92 
L 219.426863 -34.92 
L 219.934644 -34.92 
L 220.442424 -34.92 
L 220.950205 -34.92 
L 221.457985 -34.92 
L 221.965766 -34.92 
L 222.473546 -34.92 
L 222.981327 -34.92 
L 223.489107 -34.92 
L 223.996888 -34.92 
L 224.504668 -34.92 
L 225.012449 -34.92 
L 225.520229 -34.92 
L 226.02801 -34.92 
L 226.53579 -34.92 
L 227.043571 -34.92 
L 227.551351 -34.92 
L 228.059132 -34.92 
L 228.566912 -34.92 
L 229.074693 -34.92 
L 229.582473 -34.92 
L 230.090254 -34.92 
L 230.598034 -34.92 
L 231.105815 -34.92 
L 231.613595 -34.92 
L 232.121376 -34.92 
L 232.629156 -34.92 
L 233.136937 -34.92 
L 233.644717 -34.92 
L 234.152498 -34.92 
L 234.660278 -34.92 
L 235.168059 -34.92 
L 235.675839 -34.92 
L 236.18362 -34.92 
L 236.6914 -34.92 
L 237.199181 -34.92 
L 237.706962 -34.92 
L 238.214742 -34.92 
L 238.722523 -34.92 
L 239.230303 -34.92 
L 239.738084 -34.92 
L 240.245864 -34.92 
L 240.753645 -34.92 
L 241.261425 -34.92 
L 241.769206 -34.92 
L 242.276986 -34.92 
L 242.784767 -34.92 
L 243.292547 -34.92 
L 243.800328 -34.92 
L 244.308108 -34.92 
L 244.815889 -34.92 
L 245.323669 -34.92 
L 245.83145 -34.92 
L 246.33923 -34.92 
L 246.847011 -34.92 
L 247.354791 -34.92 
L 247.862572 -34.92 
L 248.370352 -34.92 
L 248.878133 -34.92 
L 249.385913 -34.92 
L 249.893694 -34.92 
L 250.401474 -34.92 
L 250.909255 -34.92 
L 251.417035 -34.92 
L 251.924816 -34.92 
L 252.432596 -34.92 
L 252.940377 -34.92 
L 253.448157 -34.92 
L 253.955938 -34.92 
L 254.463718 -34.92 
L 254.971499 -34.92 
L 255.479279 -34.92 
L 255.98706 -34.92 
L 256.49484 -34.92 
L 257.002621 -34.92 
L 257.510401 -34.92 
L 258.018182 -34.92 
L 258.525962 -34.92 
L 259.033743 -34.92 
L 259.541523 -34.92 
L 260.049304 -34.92 
L 260.557084 -34.92 
L 261.064865 -34.92 
L 261.572645 -34.92 
L 262.080426 -34.92 
L 262.588206 -34.92 
L 263.095987 -34.92 
L 263.603767 -34.92 
L 264.111548 -34.92 
L 264.619328 -34.92 
L 265.127109 -34.92 
L 265.634889 -34.92 
L 266.14267 -34.92 
L 266.65045 -34.92 
L 267.158231 -34.92 
L 267.666011 -34.92 
L 268.173792 -34.92 
L 268.681572 -34.92 
L 269.189353 -34.92 
L 269.697133 -34.92 
L 270.204914 -34.92 
L 270.712695 -34.92 
L 271.220475 -34.92 
L 271.728256 -34.92 
L 272.236036 -34.92 
L 272.743817 -34.92 
L 273.251597 -34.92 
L 273.759378 -34.92 
L 274.267158 -34.92 
L 274.774939 -34.92 
L 275.282719 -34.92 
L 275.7905 -34.92 
L 276.29828 -34.92 
L 276.806061 -34.92 
L 277.313841 -34.92 
L 277.821622 -34.92 
L 278.329402 -34.92 
L 278.837183 -34.92 
L 279.344963 -34.92 
L 279.852744 -34.92 
L 280.360524 -34.92 
L 280.868305 -34.92 
L 281.376085 -34.92 
L 281.883866 -34.92 
L 282.391646 -34.92 
L 282.899427 -34.92 
L 283.407207 -34.92 
L 283.914988 -34.92 
L 284.422768 -34.92 
L 284.930549 -34.92 
L 285.438329 -34.92 
L 285.94611 -34.92 
L 286.45389 -34.92 
L 286.961671 -34.92 
L 287.469451 -34.92 
L 287.977232 -34.92 
L 288.485012 -34.92 
L 288.992793 -34.92 
L 289.500573 -34.92 
L 290.008354 -34.92 
L 290.516134 -34.92 
L 291.023915 -34.92 
L 291.531695 -34.92 
L 292.039476 -34.92 
L 292.547256 -34.92 
L 293.055037 -34.92 
L 293.562817 -34.92 
L 294.070598 -34.92 
L 294.578378 -34.92 
L 295.086159 -34.92 
L 295.593939 -34.92 
L 296.10172 -34.92 
L 296.6095 -34.92 
L 297.117281 -34.92 
L 297.625061 -34.92 
L 298.132842 -34.92 
L 298.640622 -34.92 
L 299.148403 -34.92 
L 299.656183 -34.92 
L 300.163964 -34.92 
L 300.671744 -34.92 
L 301.179525 -34.92 
L 301.687305 -34.92 
L 302.195086 -34.92 
L 302.702867 -34.92 
L 303.210647 -34.92 
L 303.718428 -34.92 
L 304.226208 -34.92 
L 304.733989 -34.92 
L 305.241769 -34.92 
L 305.74955 -34.92 
L 306.25733 -34.92 
L 306.765111 -34.92 
L 307.272891 -34.92 
L 307.780672 -34.92 
L 308.288452 -34.92 
L 308.796233 -34.92 
L 309.304013 -34.92 
L 309.811794 -34.92 
L 310.319574 -34.92 
L 310.827355 -34.92 
L 311.335135 -34.92 
L 311.842916 -34.92 
L 312.350696 -34.92 
L 312.858477 -34.92 
L 313.366257 -34.92 
L 313.874038 -34.92 
L 314.381818 -34.92 
L 314.889599 -34.92 
L 315.397379 -34.92 
L 315.90516 -34.92 
L 316.41294 -34.92 
L 316.920721 -34.92 
L 317.428501 -34.92 
L 317.936282 -34.92 
L 318.444062 -34.92 
L 318.951843 -34.92 
L 319.459623 -34.92 
L 319.967404 -34.92 
L 320.475184 -34.92 
L 320.982965 -34.92 
L 321.490745 -34.92 
L 321.998526 -34.92 
L 322.506306 -34.92 
L 323.014087 -34.92 
L 323.521867 -34.92 
L 324.029648 -34.92 
L 324.537428 -34.92 
L 325.045209 -34.92 
L 325.552989 -34.92 
L 326.06077 -34.92 
L 326.56855 -34.92 
L 327.076331 -34.92 
L 327.584111 -34.92 
L 328.091892 -34.92 
L 328.599672 -34.92 
L 329.107453 -34.92 
L 329.615233 -34.92 
L 330.123014 -34.92 
L 330.630794 -34.92 
L 331.138575 -34.92 
L 331.646355 -34.92 
L 332.154136 -34.92 
L 332.661916 -34.92 
L 333.169697 -34.92 
L 333.677477 -34.92 
L 334.185258 -34.92 
L 334.693038 -34.92 
L 335.200819 -34.92 
L 335.7086 -34.92 
L 336.21638 -34.92 
L 336.724161 -34.92 
L 337.231941 -34.92 
L 337.739722 -34.92 
L 338.247502 -34.92 
L 338.755283 -34.92 
L 339.263063 -34.92 
L 339.770844 -34.92 
L 340.278624 -34.92 
L 340.786405 -34.92 
L 341.294185 -34.92 
L 341.801966 -34.92 
L 342.309746 -34.92 
L 342.817527 -34.92 
L 343.325307 -34.92 
L 343.833088 -34.92 
L 344.340868 -34.92 
L 344.848649 -34.92 
L 345.356429 -34.92 
L 345.86421 -34.92 
L 346.37199 -34.92 
L 346.879771 -34.92 
L 347.387551 -34.92 
L 347.895332 -34.92 
L 348.403112 -34.92 
L 348.910893 -34.92 
L 349.418673 -34.92 
L 349.926454 -34.92 
L 350.434234 -34.92 
L 350.942015 -34.92 
L 351.449795 -34.92 
L 351.957576 -34.92 
L 352.465356 -34.92 
L 352.973137 -34.92 
L 353.480917 -34.92 
L 353.988698 -34.92 
L 354.496478 -34.92 
L 355.004259 -34.92 
L 355.512039 -34.92 
L 356.01982 -34.92 
L 356.5276 -34.92 
L 357.035381 -34.92 
L 357.543161 -34.92 
L 358.050942 -34.92 
L 358.558722 -34.92 
L 359.066503 -34.92 
L 359.574283 -34.92 
L 360.082064 -34.92 
L 360.589844 -34.92 
L 361.097625 -34.92 
L 361.605405 -34.92 
L 362.113186 -34.92 
L 362.620966 -34.92 
L 363.128747 -34.92 
L 363.636527 -34.92 
L 364.144308 -34.92 
L 364.652088 -34.92 
L 365.159869 -34.92 
L 365.667649 -34.92 
L 366.17543 -34.92 
L 366.68321 -34.92 
L 367.190991 -34.92 
L 367.698771 -34.92 
L 368.206552 -34.92 
L 368.714333 -34.92 
L 369.222113 -34.92 
L 369.729894 -34.92 
L 370.237674 -34.92 
L 370.745455 -34.92 
L 371.253235 -34.92 
L 371.761016 -34.92 
L 372.268796 -34.92 
L 372.776577 -34.92 
L 373.284357 -34.92 
L 373.792138 -34.92 
L 374.299918 -34.92 
L 374.807699 -34.92 
L 375.315479 -34.92 
L 375.82326 -34.92 
L 376.33104 -34.92 
L 376.838821 -34.92 
L 377.346601 -34.92 
L 377.854382 -34.92 
L 378.362162 -34.92 
L 378.869943 -34.92 
L 379.377723 -34.92 
L 379.885504 -34.92 
L 380.393284 -34.92 
L 380.901065 -34.92 
L 381.408845 -34.92 
L 381.916626 -34.92 
L 382.424406 -34.92 
L 382.932187 -34.92 
L 383.439967 -34.92 
L 383.947748 -34.92 
L 384.455528 -34.92 
L 384.963309 -34.92 
L 385.471089 -34.92 
L 385.97887 -34.92 
L 386.48665 -34.92 
L 386.994431 -34.92 
L 387.502211 -34.92 
L 388.009992 -34.92 
L 388.517772 -34.92 
L 389.025553 -34.92 
L 389.533333 -34.92 
L 390.041114 -34.92 
L 390.548894 -34.92 
L 391.056675 -34.92 
L 391.564455 -34.92 
L 392.072236 -34.92 
L 392.580016 -34.92 
L 393.087797 -34.92 
L 393.595577 -34.92 
L 394.103358 -34.92 
L 394.611138 -34.92 
L 395.118919 -34.92 
L 395.626699 -34.92 
L 396.13448 -34.92 
L 396.64226 -34.92 
L 397.150041 -34.92 
L 397.657821 -34.92 
L 398.165602 -34.92 
L 398.673382 -34.92 
L 399.181163 -34.92 
L 399.688943 -34.92 
L 400.196724 -34.92 
L 400.704505 -34.92 
L 401.212285 -34.92 
L 401.720066 -34.92 
L 402.227846 -34.92 
L 402.735627 -34.92 
L 403.243407 -34.92 
L 403.751188 -34.92 
L 404.258968 -34.92 
L 404.766749 -34.92 
L 405.274529 -34.92 
L 405.78231 -34.92 
L 406.29009 -34.92 
L 406.797871 -34.92 
L 407.305651 -34.92 
L 407.813432 -34.92 
L 408.321212 -34.92 
L 408.828993 -34.92 
L 409.336773 -34.92 
L 409.844554 -34.92 
L 410.352334 -34.92 
L 410.860115 -34.92 
L 411.367895 -34.92 
L 411.875676 -34.92 
L 412.383456 -34.92 
L 412.891237 -34.92 
L 413.399017 -34.92 
L 413.906798 -34.92 
L 414.414578 -34.92 
L 414.922359 -34.92 
L 415.430139 -34.92 
L 415.93792 -34.92 
L 416.4457 -34.92 
L 416.953481 -34.92 
L 417.461261 -34.92 
L 417.969042 -34.92 
L 418.476822 -34.92 
L 418.984603 -34.92 
L 419.492383 -34.92 
L 420.000164 -34.92 
L 420.507944 -34.92 
L 421.015725 -34.92 
L 421.523505 -34.92 
L 422.031286 -34.92 
L 422.539066 -34.92 
L 423.046847 -34.92 
L 423.554627 -34.92 
L 424.062408 -34.92 
L 424.570188 -34.92 
L 425.077969 -34.92 
L 425.585749 -34.92 
L 426.09353 -34.92 
L 426.60131 -34.92 
L 427.109091 -34.92 
L 427.616871 -34.92 
L 428.124652 -34.92 
L 428.632432 -34.92 
L 429.140213 -34.92 
L 429.647993 -34.92 
L 430.155774 -34.92 
L 430.663554 -34.92 
L 431.171335 -34.92 
L 431.679115 -34.92 
L 432.186896 -34.92 
L 432.694676 -34.92 
L 433.202457 -34.92 
L 433.710238 -34.92 
L 434.218018 -34.92 
L 434.725799 -34.92 
L 435.233579 -34.92 
L 435.74136 -34.92 
L 436.24914 -34.92 
L 436.756921 -34.92 
L 437.264701 -34.92 
L 437.772482 -34.92 
L 438.280262 -34.92 
L 438.788043 -34.92 
L 439.295823 -34.92 
L 439.803604 -34.92 
L 440.311384 -34.92 
L 440.819165 -34.92 
L 441.326945 -34.92 
L 441.834726 -34.92 
L 442.342506 -34.92 
L 442.850287 -34.92 
L 443.358067 -34.92 
L 443.865848 -34.92 
L 444.373628 -34.92 
L 444.881409 -34.92 
L 445.389189 -34.92 
L 445.89697 -34.92 
L 446.40475 -34.92 
L 446.912531 -34.92 
L 447.420311 -34.92 
L 447.928092 -34.92 
L 448.435872 -34.92 
L 448.943653 -34.92 
L 449.451433 -34.92 
L 449.959214 -34.92 
L 450.466994 -34.92 
L 450.974775 -34.92 
L 451.482555 -34.92 
L 451.990336 -34.92 
L 452.498116 -34.92 
L 453.005897 -34.92 
L 453.513677 -34.92 
L 454.021458 -34.92 
L 454.529238 -34.92 
L 455.037019 -34.92 
L 455.544799 -34.92 
L 456.05258 -34.92 
L 456.56036 -34.92 
L 457.068141 -34.92 
L 457.575921 -34.92 
L 458.083702 -34.92 
L 458.591482 -34.92 
L 459.099263 -34.92 
L 459.607043 -34.92 
L 460.114824 -34.92 
L 460.622604 -34.92 
L 461.130385 -34.92 
L 461.638165 -34.92 
L 462.145946 -34.92 
L 462.653726 -34.92 
L 463.161507 -34.92 
L 463.669287 -34.92 
L 464.177068 -34.92 
L 464.684848 -34.92 
L 465.192629 -34.92 
L 465.70041 -34.92 
L 466.20819 -34.92 
L 466.715971 -34.92 
L 467.223751 -34.92 
L 467.731532 -34.92 
L 468.239312 -34.92 
L 468.747093 -34.92 
L 469.254873 -34.92 
L 469.762654 -34.92 
L 470.270434 -34.92 
L 470.778215 -34.92 
L 471.285995 -34.92 
L 471.793776 -34.92 
L 472.301556 -34.92 
L 472.809337 -34.92 
L 473.317117 -34.92 
L 473.824898 -34.92 
L 474.332678 -34.92 
L 474.840459 -34.92 
L 475.348239 -34.92 
L 475.85602 -34.92 
L 476.3638 -34.92 
L 476.871581 -34.92 
L 477.379361 -34.92 
L 477.887142 -34.92 
L 478.394922 -34.92 
L 478.902703 -34.92 
L 479.410483 -34.92 
L 479.918264 -34.92 
L 480.426044 -34.92 
L 480.933825 -34.92 
L 481.441605 -34.92 
L 481.949386 -34.92 
L 482.457166 -34.92 
L 482.964947 -34.92 
L 483.472727 -34.92 
L 483.980508 -34.92 
L 484.488288 -34.92 
L 484.996069 -34.92 
L 485.503849 -34.92 
L 486.01163 -34.92 
L 486.51941 -34.92 
L 487.027191 -34.92 
L 487.534971 -34.92 
L 488.042752 -34.92 
L 488.550532 -34.92 
L 489.058313 -34.92 
L 489.566093 -34.92 
L 490.073874 -34.92 
L 490.581654 -34.92 
L 491.089435 -34.92 
L 491.597215 -34.92 
L 492.104996 -34.92 
L 492.612776 -34.92 
L 493.120557 -34.92 
L 493.628337 -34.92 
L 494.136118 -34.92 
L 494.643898 -34.92 
L 495.151679 -34.92 
L 495.659459 -34.92 
L 496.16724 -34.92 
L 496.67502 -34.92 
L 497.182801 -34.92 
L 497.690581 -34.92 
L 498.198362 -34.92 
L 498.706143 -34.92 
L 499.213923 -34.92 
L 499.721704 -34.92 
L 500.229484 -34.92 
L 500.737265 -34.92 
L 501.245045 -34.92 
L 501.752826 -34.92 
L 502.260606 -34.92 
L 502.768387 -34.92 
L 503.276167 -34.92 
L 503.783948 -34.92 
L 504.291728 -34.92 
L 504.799509 -34.92 
L 505.307289 -34.92 
L 505.81507 -34.92 
L 506.32285 -34.92 
L 506.830631 -34.92 
L 507.338411 -34.92 
L 507.846192 -34.92 
L 508.353972 -34.92 
L 508.861753 -34.92 
L 509.369533 -34.92 
L 509.877314 -34.92 
L 510.385094 -34.92 
L 510.892875 -34.92 
L 511.400655 -34.92 
L 511.908436 -34.92 
L 512.416216 -34.92 
L 512.923997 -34.92 
L 513.431777 -34.92 
L 513.939558 -34.92 
L 514.447338 -34.92 
L 514.955119 -34.92 
L 515.462899 -34.92 
L 515.97068 -34.92 
L 516.47846 -34.92 
L 516.986241 -34.92 
L 517.494021 -34.92 
L 518.001802 -34.92 
L 518.509582 -34.92 
L 519.017363 -34.92 
L 519.525143 -34.92 
L 520.032924 -34.92 
L 520.540704 -34.92 
L 521.048485 -34.92 
L 521.556265 -34.92 
L 522.064046 -34.92 
L 522.571826 -34.92 
L 523.079607 -34.92 
L 523.587387 -34.92 
L 524.095168 -34.92 
L 524.602948 -34.92 
L 525.110729 -34.92 
L 525.618509 -34.92 
L 526.12629 -34.92 
L 526.63407 -34.92 
L 527.141851 -34.92 
L 527.649631 -34.92 
L 528.157412 -34.92 
L 528.665192 -34.92 
L 529.172973 -34.92 
L 529.680753 -34.92 
L 530.188534 -34.92 
L 530.696314 -34.92 
L 531.204095 -34.92 
L 531.711876 -34.92 
L 532.219656 -34.92 
L 532.727437 -34.92 
L 533.235217 -34.92 
L 533.742998 -34.92 
L 534.250778 -34.92 
L 534.758559 -34.92 
L 535.266339 -34.92 
L 535.77412 -34.92 
L 536.2819 -34.92 
L 536.789681 -34.92 
L 537.297461 -34.92 
L 537.805242 -34.92 
L 538.313022 -34.92 
L 538.820803 -34.92 
L 539.328583 -34.92 
L 539.836364 -34.92 
L 539.836364 -34.92 
L 539.836364 -34.92 
L 539.328583 -34.92 
L 538.820803 -34.92 
L 538.313022 -34.92 
L 537.805242 -34.92 
L 537.297461 -34.92 
L 536.789681 -34.92 
L 536.2819 -34.92 
L 535.77412 -34.92 
L 535.266339 -34.92 
L 534.758559 -34.92 
L 534.250778 -34.92 
L 533.742998 -34.92 
L 533.235217 -34.92 
L 532.727437 -34.92 
L 532.219656 -34.92 
L 531.711876 -34.92 
L 531.204095 -34.92 
L 530.696314 -34.92 
L 530.188534 -34.92 
L 529.680753 -34.92 
L 529.172973 -34.92 
L 528.665192 -34.92 
L 528.157412 -34.92 
L 527.649631 -34.92 
L 527.141851 -34.92 
L 526.63407 -34.92 
L 526.12629 -34.92 
L 525.618509 -34.92 
L 525.110729 -34.92 
L 524.602948 -34.92 
L 524.095168 -34.92 
L 523.587387 -34.92 
L 523.079607 -34.92 
L 522.571826 -34.92 
L 522.064046 -34.92 
L 521.556265 -34.92 
L 521.048485 -34.92 
L 520.540704 -34.92 
L 520.032924 -34.92 
L 519.525143 -34.92 
L 519.017363 -34.92 
L 518.509582 -34.92 
L 518.001802 -34.92 
L 517.494021 -34.92 
L 516.986241 -34.92 
L 516.47846 -34.92 
L 515.97068 -34.92 
L 515.462899 -34.92 
L 514.955119 -34.92 
L 514.447338 -34.92 
L 513.939558 -34.92 
L 513.431777 -34.92 
L 512.923997 -34.92 
L 512.416216 -34.92 
L 511.908436 -34.92 
L 511.400655 -34.92 
L 510.892875 -34.92 
L 510.385094 -34.92 
L 509.877314 -34.92 
L 509.369533 -34.92 
L 508.861753 -34.92 
L 508.353972 -34.92 
L 507.846192 -34.92 
L 507.338411 -34.92 
L 506.830631 -34.92 
L 506.32285 -34.92 
L 505.81507 -34.92 
L 505.307289 -34.92 
L 504.799509 -34.92 
L 504.291728 -34.92 
L 503.783948 -34.92 
L 503.276167 -34.92 
L 502.768387 -34.92 
L 502.260606 -34.92 
L 501.752826 -34.92 
L 501.245045 -34.92 
L 500.737265 -34.92 
L 500.229484 -34.92 
L 499.721704 -34.92 
L 499.213923 -34.92 
L 498.706143 -34.92 
L 498.198362 -34.92 
L 497.690581 -34.92 
L 497.182801 -34.92 
L 496.67502 -34.92 
L 496.16724 -34.92 
L 495.659459 -34.92 
L 495.151679 -34.92 
L 494.643898 -34.92 
L 494.136118 -34.92 
L 493.628337 -34.92 
L 493.120557 -34.92 
L 492.612776 -34.92 
L 492.104996 -34.92 
L 491.597215 -34.92 
L 491.089435 -34.92 
L 490.581654 -34.92 
L 490.073874 -34.92 
L 489.566093 -34.92 
L 489.058313 -34.92 
L 488.550532 -34.92 
L 488.042752 -34.92 
L 487.534971 -34.92 
L 487.027191 -34.92 
L 486.51941 -34.92 
L 486.01163 -34.92 
L 485.503849 -34.92 
L 484.996069 -34.92 
L 484.488288 -34.92 
L 483.980508 -34.92 
L 483.472727 -34.92 
L 482.964947 -34.92 
L 482.457166 -34.92 
L 481.949386 -34.92 
L 481.441605 -34.92 
L 480.933825 -34.92 
L 480.426044 -34.92 
L 479.918264 -34.92 
L 479.410483 -34.92 
L 478.902703 -34.92 
L 478.394922 -34.92 
L 477.887142 -34.92 
L 477.379361 -34.92 
L 476.871581 -34.92 
L 476.3638 -34.92 
L 475.85602 -34.92 
L 475.348239 -34.92 
L 474.840459 -34.92 
L 474.332678 -34.92 
L 473.824898 -34.92 
L 473.317117 -34.92 
L 472.809337 -34.92 
L 472.301556 -34.92 
L 471.793776 -34.92 
L 471.285995 -34.92 
L 470.778215 -34.92 
L 470.270434 -34.92 
L 469.762654 -34.92 
L 469.254873 -34.92 
L 468.747093 -34.92 
L 468.239312 -34.92 
L 467.731532 -34.92 
L 467.223751 -34.92 
L 466.715971 -34.92 
L 466.20819 -34.92 
L 465.70041 -34.92 
L 465.192629 -34.92 
L 464.684848 -34.92 
L 464.177068 -34.92 
L 463.669287 -34.92 
L 463.161507 -34.92 
L 462.653726 -34.92 
L 462.145946 -34.92 
L 461.638165 -34.92 
L 461.130385 -34.92 
L 460.622604 -34.92 
L 460.114824 -34.92 
L 459.607043 -34.92 
L 459.099263 -34.92 
L 458.591482 -34.92 
L 458.083702 -34.92 
L 457.575921 -34.92 
L 457.068141 -34.92 
L 456.56036 -34.92 
L 456.05258 -34.92 
L 455.544799 -34.92 
L 455.037019 -34.92 
L 454.529238 -34.92 
L 454.021458 -34.92 
L 453.513677 -34.92 
L 453.005897 -34.92 
L 452.498116 -34.92 
L 451.990336 -34.92 
L 451.482555 -34.92 
L 450.974775 -34.92 
L 450.466994 -34.92 
L 449.959214 -34.92 
L 449.451433 -34.92 
L 448.943653 -34.92 
L 448.435872 -34.92 
L 447.928092 -34.92 
L 447.420311 -34.92 
L 446.912531 -34.92 
L 446.40475 -34.92 
L 445.89697 -34.92 
L 445.389189 -34.92 
L 444.881409 -34.92 
L 444.373628 -34.92 
L 443.865848 -34.92 
L 443.358067 -34.92 
L 442.850287 -34.92 
L 442.342506 -34.92 
L 441.834726 -34.92 
L 441.326945 -34.92 
L 440.819165 -34.92 
L 440.311384 -34.92 
L 439.803604 -34.92 
L 439.295823 -34.92 
L 438.788043 -34.92 
L 438.280262 -34.92 
L 437.772482 -34.92 
L 437.264701 -34.92 
L 436.756921 -34.92 
L 436.24914 -34.92 
L 435.74136 -34.92 
L 435.233579 -34.92 
L 434.725799 -34.92 
L 434.218018 -34.92 
L 433.710238 -34.92 
L 433.202457 -34.92 
L 432.694676 -34.92 
L 432.186896 -34.92 
L 431.679115 -34.92 
L 431.171335 -34.92 
L 430.663554 -34.92 
L 430.155774 -34.92 
L 429.647993 -34.92 
L 429.140213 -34.92 
L 428.632432 -34.92 
L 428.124652 -34.92 
L 427.616871 -34.92 
L 427.109091 -34.92 
L 426.60131 -34.92 
L 426.09353 -34.92 
L 425.585749 -34.92 
L 425.077969 -34.92 
L 424.570188 -34.92 
L 424.062408 -34.92 
L 423.554627 -34.92 
L 423.046847 -34.92 
L 422.539066 -34.92 
L 422.031286 -34.92 
L 421.523505 -34.92 
L 421.015725 -34.92 
L 420.507944 -34.92 
L 420.000164 -34.92 
L 419.492383 -34.92 
L 418.984603 -34.92 
L 418.476822 -34.92 
L 417.969042 -34.92 
L 417.461261 -34.92 
L 416.953481 -34.92 
L 416.4457 -34.92 
L 415.93792 -34.92 
L 415.430139 -34.92 
L 414.922359 -34.92 
L 414.414578 -34.92 
L 413.906798 -34.92 
L 413.399017 -34.92 
L 412.891237 -34.92 
L 412.383456 -34.92 
L 411.875676 -34.92 
L 411.367895 -34.92 
L 410.860115 -34.92 
L 410.352334 -34.92 
L 409.844554 -34.92 
L 409.336773 -34.92 
L 408.828993 -34.92 
L 408.321212 -34.92 
L 407.813432 -34.92 
L 407.305651 -34.92 
L 406.797871 -34.92 
L 406.29009 -34.92 
L 405.78231 -34.92 
L 405.274529 -34.92 
L 404.766749 -34.92 
L 404.258968 -34.92 
L 403.751188 -34.92 
L 403.243407 -34.92 
L 402.735627 -34.92 
L 402.227846 -34.92 
L 401.720066 -34.92 
L 401.212285 -34.92 
L 400.704505 -34.92 
L 400.196724 -34.92 
L 399.688943 -34.92 
L 399.181163 -34.92 
L 398.673382 -34.92 
L 398.165602 -34.92 
L 397.657821 -34.92 
L 397.150041 -34.92 
L 396.64226 -34.92 
L 396.13448 -34.92 
L 395.626699 -34.92 
L 395.118919 -34.92 
L 394.611138 -34.92 
L 394.103358 -34.92 
L 393.595577 -34.92 
L 393.087797 -34.92 
L 392.580016 -34.92 
L 392.072236 -34.92 
L 391.564455 -34.92 
L 391.056675 -34.92 
L 390.548894 -34.92 
L 390.041114 -34.92 
L 389.533333 -34.92 
L 389.025553 -34.92 
L 388.517772 -34.92 
L 388.009992 -34.92 
L 387.502211 -34.92 
L 386.994431 -34.92 
L 386.48665 -34.92 
L 385.97887 -34.92 
L 385.471089 -34.92 
L 384.963309 -34.92 
L 384.455528 -34.92 
L 383.947748 -34.92 
L 383.439967 -34.92 
L 382.932187 -34.92 
L 382.424406 -34.92 
L 381.916626 -34.92 
L 381.408845 -34.92 
L 380.901065 -34.92 
L 380.393284 -34.92 
L 379.885504 -34.92 
L 379.377723 -34.92 
L 378.869943 -34.92 
L 378.362162 -34.92 
L 377.854382 -34.92 
L 377.346601 -34.92 
L 376.838821 -34.92 
L 376.33104 -34.92 
L 375.82326 -34.92 
L 375.315479 -34.92 
L 374.807699 -34.92 
L 374.299918 -34.92 
L 373.792138 -34.92 
L 373.284357 -34.92 
L 372.776577 -34.92 
L 372.268796 -34.92 
L 371.761016 -34.92 
L 371.253235 -34.92 
L 370.745455 -34.92 
L 370.237674 -34.92 
L 369.729894 -34.92 
L 369.222113 -34.92 
L 368.714333 -34.92 
L 368.206552 -34.92 
L 367.698771 -34.92 
L 367.190991 -34.92 
L 366.68321 -34.92 
L 366.17543 -34.92 
L 365.667649 -34.92 
L 365.159869 -34.92 
L 364.652088 -34.92 
L 364.144308 -34.92 
L 363.636527 -34.92 
L 363.128747 -34.92 
L 362.620966 -34.92 
L 362.113186 -34.92 
L 361.605405 -34.92 
L 361.097625 -34.92 
L 360.589844 -34.92 
L 360.082064 -34.92 
L 359.574283 -34.92 
L 359.066503 -34.92 
L 358.558722 -34.92 
L 358.050942 -34.92 
L 357.543161 -34.92 
L 357.035381 -34.92 
L 356.5276 -34.92 
L 356.01982 -34.92 
L 355.512039 -34.92 
L 355.004259 -34.92 
L 354.496478 -34.92 
L 353.988698 -34.92 
L 353.480917 -34.92 
L 352.973137 -34.92 
L 352.465356 -34.92 
L 351.957576 -34.92 
L 351.449795 -34.92 
L 350.942015 -34.92 
L 350.434234 -34.92 
L 349.926454 -34.92 
L 349.418673 -34.92 
L 348.910893 -34.92 
L 348.403112 -34.92 
L 347.895332 -34.92 
L 347.387551 -34.92 
L 346.879771 -34.92 
L 346.37199 -34.92 
L 345.86421 -34.92 
L 345.356429 -34.92 
L 344.848649 -34.92 
L 344.340868 -34.92 
L 343.833088 -34.92 
L 343.325307 -34.92 
L 342.817527 -34.92 
L 342.309746 -34.92 
L 341.801966 -34.92 
L 341.294185 -34.92 
L 340.786405 -34.92 
L 340.278624 -34.92 
L 339.770844 -34.92 
L 339.263063 -34.92 
L 338.755283 -34.92 
L 338.247502 -34.92 
L 337.739722 -34.92 
L 337.231941 -34.92 
L 336.724161 -34.92 
L 336.21638 -34.92 
L 335.7086 -34.92 
L 335.200819 -34.92 
L 334.693038 -34.92 
L 334.185258 -34.92 
L 333.677477 -34.92 
L 333.169697 -34.92 
L 332.661916 -34.92 
L 332.154136 -34.92 
L 331.646355 -34.92 
L 331.138575 -34.92 
L 330.630794 -34.92 
L 330.123014 -34.92 
L 329.615233 -34.92 
L 329.107453 -34.92 
L 328.599672 -34.92 
L 328.091892 -34.92 
L 327.584111 -34.92 
L 327.076331 -34.92 
L 326.56855 -34.92 
L 326.06077 -34.92 
L 325.552989 -34.92 
L 325.045209 -34.92 
L 324.537428 -34.92 
L 324.029648 -34.92 
L 323.521867 -34.92 
L 323.014087 -34.92 
L 322.506306 -34.92 
L 321.998526 -34.92 
L 321.490745 -34.92 
L 320.982965 -34.92 
L 320.475184 -34.92 
L 319.967404 -34.92 
L 319.459623 -34.92 
L 318.951843 -34.92 
L 318.444062 -34.92 
L 317.936282 -34.92 
L 317.428501 -34.92 
L 316.920721 -34.92 
L 316.41294 -34.92 
L 315.90516 -34.92 
L 315.397379 -34.92 
L 314.889599 -34.92 
L 314.381818 -34.92 
L 313.874038 -34.92 
L 313.366257 -34.92 
L 312.858477 -34.92 
L 312.350696 -34.92 
L 311.842916 -34.92 
L 311.335135 -34.92 
L 310.827355 -34.92 
L 310.319574 -34.92 
L 309.811794 -34.92 
L 309.304013 -34.92 
L 308.796233 -34.92 
L 308.288452 -34.92 
L 307.780672 -34.92 
L 307.272891 -34.92 
L 306.765111 -34.92 
L 306.25733 -34.92 
L 305.74955 -34.92 
L 305.241769 -34.92 
L 304.733989 -34.92 
L 304.226208 -34.92 
L 303.718428 -34.92 
L 303.210647 -34.92 
L 302.702867 -34.92 
L 302.195086 -34.92 
L 301.687305 -34.92 
L 301.179525 -34.92 
L 300.671744 -34.92 
L 300.163964 -34.92 
L 299.656183 -34.92 
L 299.148403 -34.92 
L 298.640622 -34.92 
L 298.132842 -34.92 
L 297.625061 -34.92 
L 297.117281 -34.92 
L 296.6095 -34.92 
L 296.10172 -34.92 
L 295.593939 -34.92 
L 295.086159 -34.92 
L 294.578378 -34.92 
L 294.070598 -34.92 
L 293.562817 -34.92 
L 293.055037 -34.92 
L 292.547256 -34.92 
L 292.039476 -34.92 
L 291.531695 -34.92 
L 291.023915 -34.92 
L 290.516134 -34.92 
L 290.008354 -34.92 
L 289.500573 -34.92 
L 288.992793 -34.92 
L 288.485012 -34.92 
L 287.977232 -34.92 
L 287.469451 -34.92 
L 286.961671 -34.92 
L 286.45389 -34.92 
L 285.94611 -34.92 
L 285.438329 -34.92 
L 284.930549 -34.92 
L 284.422768 -34.92 
L 283.914988 -34.92 
L 283.407207 -34.92 
L 282.899427 -34.92 
L 282.391646 -34.92 
L 281.883866 -34.92 
L 281.376085 -34.92 
L 280.868305 -34.92 
L 280.360524 -34.92 
L 279.852744 -34.92 
L 279.344963 -34.92 
L 278.837183 -34.92 
L 278.329402 -34.92 
L 277.821622 -34.92 
L 277.313841 -34.92 
L 276.806061 -34.92 
L 276.29828 -34.92 
L 275.7905 -34.92 
L 275.282719 -34.92 
L 274.774939 -34.92 
L 274.267158 -34.92 
L 273.759378 -34.92 
L 273.251597 -34.92 
L 272.743817 -34.92 
L 272.236036 -34.92 
L 271.728256 -34.92 
L 271.220475 -34.92 
L 270.712695 -34.92 
L 270.204914 -34.92 
L 269.697133 -34.92 
L 269.189353 -34.92 
L 268.681572 -34.92 
L 268.173792 -34.92 
L 267.666011 -34.92 
L 267.158231 -34.92 
L 266.65045 -34.92 
L 266.14267 -34.92 
L 265.634889 -34.92 
L 265.127109 -34.92 
L 264.619328 -34.92 
L 264.111548 -34.92 
L 263.603767 -34.92 
L 263.095987 -34.92 
L 262.588206 -34.92 
L 262.080426 -34.92 
L 261.572645 -34.92 
L 261.064865 -34.92 
L 260.557084 -34.92 
L 260.049304 -34.92 
L 259.541523 -34.92 
L 259.033743 -34.92 
L 258.525962 -34.92 
L 258.018182 -34.92 
L 257.510401 -34.92 
L 257.002621 -34.92 
L 256.49484 -34.92 
L 255.98706 -34.92 
L 255.479279 -34.92 
L 254.971499 -34.92 
L 254.463718 -34.92 
L 253.955938 -34.92 
L 253.448157 -34.92 
L 252.940377 -34.92 
L 252.432596 -34.92 
L 251.924816 -34.92 
L 251.417035 -34.92 
L 250.909255 -34.92 
L 250.401474 -34.92 
L 249.893694 -34.92 
L 249.385913 -34.92 
L 248.878133 -34.92 
L 248.370352 -34.92 
L 247.862572 -34.92 
L 247.354791 -34.92 
L 246.847011 -34.92 
L 246.33923 -34.92 
L 245.83145 -34.92 
L 245.323669 -34.92 
L 244.815889 -34.92 
L 244.308108 -34.92 
L 243.800328 -34.92 
L 243.292547 -34.92 
L 242.784767 -34.92 
L 242.276986 -34.92 
L 241.769206 -34.92 
L 241.261425 -34.92 
L 240.753645 -34.92 
L 240.245864 -34.92 
L 239.738084 -34.92 
L 239.230303 -34.92 
L 238.722523 -34.92 
L 238.214742 -34.92 
L 237.706962 -34.92 
L 237.199181 -34.92 
L 236.6914 -34.92 
L 236.18362 -34.92 
L 235.675839 -34.92 
L 235.168059 -34.92 
L 234.660278 -34.92 
L 234.152498 -34.92 
L 233.644717 -34.92 
L 233.136937 -34.92 
L 232.629156 -34.92 
L 232.121376 -34.92 
L 231.613595 -34.92 
L 231.105815 -34.92 
L 230.598034 -34.92 
L 230.090254 -34.92 
L 229.582473 -34.92 
L 229.074693 -34.92 
L 228.566912 -34.92 
L 228.059132 -34.92 
L 227.551351 -34.92 
L 227.043571 -34.92 
L 226.53579 -34.92 
L 226.02801 -34.92 
L 225.520229 -34.92 
L 225.012449 -34.92 
L 224.504668 -34.92 
L 223.996888 -34.92 
L 223.489107 -34.92 
L 222.981327 -34.92 
L 222.473546 -34.92 
L 221.965766 -34.92 
L 221.457985 -34.92 
L 220.950205 -34.92 
L 220.442424 -34.92 
L 219.934644 -34.92 
L 219.426863 -34.92 
L 218.919083 -34.92 
L 218.411302 -34.92 
L 217.903522 -34.92 
L 217.395741 -34.92 
L 216.887961 -34.92 
L 216.38018 -34.92 
L 215.8724 -34.92 
L 215.364619 -34.92 
L 214.856839 -34.92 
L 214.349058 -34.92 
L 213.841278 -34.92 
L 213.333497 -34.92 
L 212.825717 -34.92 
L 212.317936 -34.92 
L 211.810156 -34.92 
L 211.302375 -34.92 
L 210.794595 -34.92 
L 210.286814 -34.92 
L 209.779034 -34.92 
L 209.271253 -34.92 
L 208.763473 -34.92 
L 208.255692 -34.92 
L 207.747912 -34.92 
L 207.240131 -34.92 
L 206.732351 -34.92 
L 206.22457 -34.92 
L 205.71679 -34.92 
L 205.209009 -34.92 
L 204.701229 -34.92 
L 204.193448 -34.92 
L 203.685667 -34.92 
L 203.177887 -34.92 
L 202.670106 -34.92 
L 202.162326 -34.92 
L 201.654545 -34.92 
L 201.146765 -34.92 
L 200.638984 -34.92 
L 200.131204 -34.92 
L 199.623423 -34.92 
L 199.115643 -34.92 
L 198.607862 -34.92 
L 198.100082 -34.92 
L 197.592301 -34.92 
L 197.084521 -34.92 
L 196.57674 -34.92 
L 196.06896 -34.92 
L 195.561179 -34.92 
L 195.053399 -34.92 
L 194.545618 -34.92 
L 194.037838 -34.92 
L 193.530057 -34.92 
L 193.022277 -34.92 
L 192.514496 -34.92 
L 192.006716 -34.92 
L 191.498935 -34.92 
L 190.991155 -34.92 
L 190.483374 -34.92 
L 189.975594 -34.92 
L 189.467813 -34.92 
L 188.960033 -34.92 
L 188.452252 -34.92 
L 187.944472 -34.92 
L 187.436691 -34.92 
L 186.928911 -34.92 
L 186.42113 -34.92 
L 185.91335 -34.92 
L 185.405569 -34.92 
L 184.897789 -34.92 
L 184.390008 -34.92 
L 183.882228 -34.92 
L 183.374447 -34.92 
L 182.866667 -34.92 
L 182.358886 -34.92 
L 181.851106 -34.92 
L 181.343325 -34.92 
L 180.835545 -34.92 
L 180.327764 -34.92 
L 179.819984 -34.92 
L 179.312203 -34.92 
L 178.804423 -34.92 
L 178.296642 -34.92 
L 177.788862 -34.92 
L 177.281081 -34.92 
L 176.773301 -34.92 
L 176.26552 -34.92 
L 175.75774 -34.92 
L 175.249959 -34.92 
L 174.742179 -34.92 
L 174.234398 -34.92 
L 173.726618 -34.92 
L 173.218837 -34.92 
L 172.711057 -34.92 
L 172.203276 -34.92 
L 171.695495 -34.92 
L 171.187715 -34.92 
L 170.679934 -34.92 
L 170.172154 -34.92 
L 169.664373 -34.92 
L 169.156593 -34.92 
L 168.648812 -34.92 
L 168.141032 -34.92 
L 167.633251 -34.92 
L 167.125471 -34.92 
L 166.61769 -34.92 
L 166.10991 -34.92 
L 165.602129 -34.92 
L 165.094349 -34.92 
L 164.586568 -34.92 
L 164.078788 -34.92 
L 163.571007 -34.92 
L 163.063227 -34.92 
L 162.555446 -34.92 
L 162.047666 -34.92 
L 161.539885 -34.92 
L 161.032105 -34.92 
L 160.524324 -34.92 
L 160.016544 -34.92 
L 159.508763 -34.92 
L 159.000983 -34.92 
L 158.493202 -34.92 
L 157.985422 -34.92 
L 157.477641 -34.92 
L 156.969861 -34.92 
L 156.46208 -34.92 
L 155.9543 -34.92 
L 155.446519 -34.92 
L 154.938739 -34.92 
L 154.430958 -34.92 
L 153.923178 -34.92 
L 153.415397 -34.92 
L 152.907617 -34.92 
L 152.399836 -34.92 
L 151.892056 -34.92 
L 151.384275 -34.92 
L 150.876495 -34.92 
L 150.368714 -34.92 
L 149.860934 -34.92 
L 149.353153 -34.92 
L 148.845373 -34.92 
L 148.337592 -34.92 
L 147.829812 -34.92 
L 147.322031 -34.92 
L 146.814251 -34.92 
L 146.30647 -34.92 
L 145.79869 -34.92 
L 145.290909 -34.92 
L 144.783129 -34.92 
L 144.275348 -34.92 
L 143.767568 -34.92 
L 143.259787 -34.92 
L 142.752007 -34.92 
L 142.244226 -34.92 
L 141.736446 -34.92 
L 141.228665 -34.92 
L 140.720885 -34.92 
L 140.213104 -34.92 
L 139.705324 -34.92 
L 139.197543 -34.92 
L 138.689762 -34.92 
L 138.181982 -34.92 
L 137.674201 -34.92 
L 137.166421 -34.92 
L 136.65864 -34.92 
L 136.15086 -34.92 
L 135.643079 -34.92 
L 135.135299 -34.92 
L 134.627518 -34.92 
L 134.119738 -34.92 
L 133.611957 -34.92 
L 133.104177 -34.92 
L 132.596396 -34.92 
L 132.088616 -34.92 
L 131.580835 -34.92 
L 131.073055 -34.92 
L 130.565274 -34.92 
L 130.057494 -34.92 
L 129.549713 -34.92 
L 129.041933 -34.92 
L 128.534152 -34.92 
L 128.026372 -34.92 
L 127.518591 -34.92 
L 127.010811 -34.92 
L 126.50303 -34.92 
L 125.99525 -34.92 
L 125.487469 -34.92 
L 124.979689 -34.92 
L 124.471908 -34.92 
L 123.964128 -34.92 
L 123.456347 -34.92 
L 122.948567 -34.92 
L 122.440786 -34.92 
L 121.933006 -34.92 
L 121.425225 -34.92 
L 120.917445 -34.92 
L 120.409664 -34.92 
L 119.901884 -34.92 
L 119.394103 -34.92 
L 118.886323 -34.92 
L 118.378542 -34.92 
L 117.870762 -34.92 
L 117.362981 -34.92 
L 116.855201 -34.92 
L 116.34742 -34.92 
L 115.83964 -34.92 
L 115.331859 -34.92 
L 114.824079 -34.92 
L 114.316298 -34.92 
L 113.808518 -34.92 
L 113.300737 -34.92 
L 112.792957 -34.92 
L 112.285176 -34.92 
L 111.777396 -34.92 
L 111.269615 -34.92 
L 110.761835 -34.92 
L 110.254054 -34.92 
L 109.746274 -34.92 
L 109.238493 -34.92 
L 108.730713 -34.92 
L 108.222932 -34.92 
L 107.715152 -34.92 
L 107.207371 -34.92 
L 106.69959 -34.92 
L 106.19181 -34.92 
L 105.684029 -34.92 
L 105.176249 -34.92 
L 104.668468 -34.92 
L 104.160688 -34.92 
L 103.652907 -34.92 
L 103.145127 -34.92 
L 102.637346 -34.92 
L 102.129566 -34.92 
L 101.621785 -34.92 
L 101.114005 -34.92 
L 100.606224 -34.92 
L 100.098444 -34.92 
L 99.590663 -34.92 
L 99.082883 -34.92 
L 98.575102 -34.92 
L 98.067322 -34.92 
L 97.559541 -34.92 
L 97.051761 -34.92 
L 96.54398 -34.92 
L 96.0362 -34.92 
L 95.528419 -34.92 
L 95.020639 -34.92 
L 94.512858 -34.92 
L 94.005078 -34.92 
L 93.497297 -34.92 
L 92.989517 -34.92 
L 92.481736 -34.92 
L 91.973956 -34.92 
L 91.466175 -34.92 
L 90.958395 -34.92 
L 90.450614 -34.92 
L 89.942834 -34.92 
L 89.435053 -34.92 
L 88.927273 -34.92 
L 88.419492 -34.92 
L 87.911712 -34.92 
L 87.403931 -34.92 
L 86.896151 -34.92 
L 86.38837 -34.92 
L 85.88059 -34.92 
L 85.372809 -34.92 
L 84.865029 -34.92 
L 84.357248 -34.92 
L 83.849468 -34.92 
L 83.341687 -34.92 
L 82.833907 -34.92 
L 82.326126 -34.92 
L 81.818346 -34.92 
L 81.310565 -34.92 
L 80.802785 -34.92 
L 80.295004 -34.92 
L 79.787224 -34.92 
L 79.279443 -34.92 
L 78.771663 -34.92 
L 78.263882 -34.92 
L 77.756102 -34.92 
L 77.248321 -34.92 
L 76.740541 -34.92 
L 76.23276 -34.92 
L 75.72498 -34.92 
L 75.217199 -34.92 
L 74.709419 -34.92 
L 74.201638 -34.92 
L 73.693857 -34.92 
L 73.186077 -34.92 
L 72.678296 -34.92 
L 72.170516 -34.92 
L 71.662735 -34.92 
L 71.154955 -34.92 
L 70.647174 -34.92 
L 70.139394 -34.92 
L 69.631613 -34.92 
L 69.123833 -34.92 
L 68.616052 -34.92 
L 68.108272 -34.92 
L 67.600491 -34.92 
L 67.092711 -34.92 
L 66.58493 -34.92 
L 66.07715 -34.92 
L 65.569369 -34.92 
L 65.061589 -34.92 
L 64.553808 -34.92 
L 64.046028 -34.92 
L 63.538247 -34.92 
L 63.030467 -34.92 
L 62.522686 -34.92 
L 62.014906 -34.92 
L 61.507125 -34.92 
L 60.999345 -34.92 
L 60.491564 -34.92 
L 59.983784 -34.92 
L 59.476003 -34.92 
L 58.968223 -34.92 
L 58.460442 -34.92 
L 57.952662 -34.92 
L 57.444881 -34.92 
L 56.937101 -34.92 
L 56.42932 -34.92 
L 55.92154 -34.92 
L 55.413759 -34.92 
L 54.905979 -34.92 
L 54.398198 -34.92 
L 53.890418 -34.92 
L 53.382637 -34.92 
L 52.874857 -34.92 
L 52.367076 -34.92 
L 51.859296 -34.92 
L 51.351515 -34.92 
L 50.843735 -34.92 
L 50.335954 -34.92 
L 49.828174 -34.92 
L 49.320393 -34.92 
L 48.812613 -34.92 
L 48.304832 -34.92 
L 47.797052 -34.92 
L 47.289271 -34.92 
L 46.781491 -34.92 
L 46.27371 -34.92 
L 45.76593 -34.92 
L 45.258149 -34.92 
L 44.750369 -34.92 
L 44.242588 -34.92 
L 43.734808 -34.92 
L 43.227027 -34.92 
L 42.719247 -34.92 
L 42.211466 -34.92 
L 41.703686 -34.92 
L 41.195905 -34.92 
L 40.688124 -34.92 
L 40.180344 -34.92 
L 39.672563 -34.92 
L 39.164783 -34.92 
L 38.657002 -34.92 
L 38.149222 -34.92 
L 37.641441 -34.92 
L 37.133661 -34.92 
L 36.62588 -34.92 
L 36.1181 -34.92 
L 35.610319 -34.92 
L 35.102539 -34.92 
L 34.594758 -34.92 
L 34.086978 -34.92 
L 33.579197 -34.92 
L 33.071417 -34.92 
L 32.563636 -34.92 
z
" style="stroke: #d62728; stroke-opacity: 0.7"/>
    </defs>
    <g clip-path="url(#p39924d7340)">
     <use xlink:href="#mf0bf77e56a" x="0" y="442.325" style="fill: #d62728; fill-opacity: 0.7; stroke: #d62728; stroke-opacity: 0.7"/>
    </g>
   </g>
   <g id="line2d_1">
    <path d="M 32.563636 407.405 
L 438.280262 407.405 
L 438.788043 268.805 
L 539.836364 268.805 
L 539.836364 268.805 
" clip-path="url(#p39924d7340)" style="fill: none; stroke: #1f77b4; stroke-width: 1.5; stroke-linecap: square"/>
   </g>
   <g id="line2d_2">
    <path d="M 32.563636 130.205 
L 184.390008 130.205 
L 184.897789 407.405 
L 539.836364 407.405 
L 539.836364 407.405 
" clip-path="url(#p39924d7340)" style="fill: none; stroke: #d62728; stroke-width: 1.5; stroke-linecap: square"/>
   </g>
   <g id="line2d_3">
    <path d="M 32.563636 130.513395 
L 64.046028 130.853652 
L 86.38837 131.303605 
L 104.160688 131.874281 
L 118.886323 132.563993 
L 131.580835 133.380797 
L 142.244226 134.278609 
L 151.892056 135.303758 
L 160.524324 136.432922 
L 168.648812 137.716877 
L 176.26552 139.152101 
L 183.374447 140.728429 
L 189.975594 142.428553 
L 196.06896 144.227945 
L 201.654545 146.095262 
L 207.240131 148.194237 
L 212.317936 150.323605 
L 217.395741 152.683167 
L 222.473546 155.292459 
L 227.551351 158.171386 
L 232.121376 161.009443 
L 236.6914 164.096344 
L 241.261425 167.445829 
L 245.83145 171.070745 
L 250.401474 174.982658 
L 254.971499 179.191424 
L 259.541523 183.704723 
L 264.111548 188.52758 
L 268.681572 193.661874 
L 273.251597 199.105873 
L 278.329402 205.510825 
L 283.407207 212.276583 
L 288.992793 220.109843 
L 295.086159 229.077552 
L 301.687305 239.216391 
L 309.304013 251.334101 
L 321.490745 271.21881 
L 334.185258 291.814903 
L 341.801966 303.746526 
L 348.403112 313.664988 
L 353.988698 321.679458 
L 359.574283 329.300433 
L 364.652088 335.85907 
L 369.729894 342.047755 
L 374.299918 347.292566 
L 378.869943 352.226118 
L 383.439967 356.849059 
L 388.009992 361.16535 
L 392.580016 365.181784 
L 397.150041 368.907497 
L 401.720066 372.353499 
L 406.29009 375.532228 
L 410.860115 378.457148 
L 415.93792 381.426578 
L 421.015725 384.119979 
L 426.09353 386.557305 
L 431.171335 388.758244 
L 436.756921 390.929061 
L 442.342506 392.861373 
L 448.435872 394.724358 
L 454.529238 396.358738 
L 461.130385 397.90099 
L 468.239312 399.329241 
L 475.85602 400.628222 
L 483.980508 401.789148 
L 493.120557 402.863197 
L 503.276167 403.820607 
L 514.447338 404.64472 
L 527.141851 405.355454 
L 539.836364 405.884198 
L 539.836364 405.884198 
" clip-path="url(#p39924d7340)" style="fill: none; stroke-dasharray: 5.55,2.4; stroke-dashoffset: 0; stroke: #000000; stroke-width: 1.5"/>
   </g>
   <g id="line2d_4">
    <path d="M 320.018182 407.405 
L 320.018182 19.325 
" clip-path="url(#p39924d7340)" style="fill: none; stroke-dasharray: 1,1.65; stroke-dashoffset: 0; stroke: #808080"/>
   </g>
   <g id="patch_2">
    <path d="M 560.085096 407.405 
Q 285.201182 407.405 9.199233 407.405 
" style="fill: none; stroke: #000000; stroke-linecap: round"/>
    <path d="M 553.685096 404.205 
L 560.085096 407.405 
L 553.685096 410.605 
" style="fill: none; stroke: #000000; stroke-linecap: round"/>
   </g>
   <g id="text_1">
    <!-- $E$ -->
    <g transform="translate(565.2 411.82)scale(0.16 -0.16)">
     <defs>
      <path id="DejaVuSans-Oblique-45" d="M 1081 4666 
L 4031 4666 
L 3928 4134 
L 1606 4134 
L 1338 2753 
L 3566 2753 
L 3463 2222 
L 1234 2222 
L 909 531 
L 3284 531 
L 3181 0 
L 172 0 
L 1081 4666 
z
" transform="scale(0.015625)"/>
     </defs>
     <use xlink:href="#DejaVuSans-Oblique-45" transform="translate(0 0.09375)"/>
    </g>
   </g>
   <g id="patch_3">
    <path d="M 286.2 27.800991 
Q 286.2 216.043317 286.2 405.403676 
" style="fill: none; stroke: #000000; stroke-linecap: round"/>
    <path d="M 283 34.200991 
L 286.2 27.800991 
L 289.4 34.200991 
" style="fill: none; stroke: #000000; stroke-linecap: round"/>
   </g>
   <g id="text_2">
    <!-- $g$ -->
    <g transform="translate(281.08 19.325)scale(0.16 -0.16)">
     <defs>
      <path id="DejaVuSans-Oblique-67" d="M 3816 3500 
L 3219 434 
Q 3047 -456 2561 -893 
Q 2075 -1331 1253 -1331 
Q 950 -1331 690 -1286 
Q 431 -1241 206 -1147 
L 313 -588 
Q 525 -725 762 -790 
Q 1000 -856 1269 -856 
Q 1816 -856 2167 -557 
Q 2519 -259 2631 300 
L 2681 563 
Q 2441 288 2122 144 
Q 1803 0 1434 0 
Q 903 0 598 351 
Q 294 703 294 1319 
Q 294 1803 478 2267 
Q 663 2731 997 3091 
Q 1219 3328 1514 3456 
Q 1809 3584 2131 3584 
Q 2484 3584 2746 3420 
Q 3009 3256 3138 2956 
L 3238 3500 
L 3816 3500 
z
M 2950 2216 
Q 2950 2641 2750 2872 
Q 2550 3103 2181 3103 
Q 1953 3103 1747 3012 
Q 1541 2922 1394 2759 
Q 1156 2491 1023 2127 
Q 891 1763 891 1375 
Q 891 944 1092 712 
Q 1294 481 1672 481 
Q 2219 481 2584 976 
Q 2950 1472 2950 2216 
z
" transform="scale(0.015625)"/>
     </defs>
     <use xlink:href="#DejaVuSans-Oblique-67"/>
    </g>
   </g>
   <g id="text_3">
    <!-- $E_V$ -->
    <g transform="translate(175.625455 431.7975)scale(0.16 -0.16)">
     <defs>
      <path id="DejaVuSans-Oblique-56" d="M 1319 0 
L 500 4666 
L 1119 4666 
L 1797 653 
L 4063 4666 
L 4750 4666 
L 2053 0 
L 1319 0 
z
" transform="scale(0.015625)"/>
     </defs>
     <use xlink:href="#DejaVuSans-Oblique-45" transform="translate(0 0.09375)"/>
     <use xlink:href="#DejaVuSans-Oblique-56" transform="translate(63.183594 -16.3125)scale(0.7)"/>
    </g>
   </g>
   <g id="text_4">
    <!-- $E_C$ -->
    <g transform="translate(429.181818 431.7975)scale(0.16 -0.16)">
     <defs>
      <path id="DejaVuSans-Oblique-43" d="M 4447 4306 
L 4319 3641 
Q 4019 3944 3683 4091 
Q 3347 4238 2956 4238 
Q 2422 4238 2017 3981 
Q 1613 3725 1319 3200 
Q 1131 2863 1032 2486 
Q 934 2109 934 1728 
Q 934 1091 1264 756 
Q 1594 422 2222 422 
Q 2656 422 3056 561 
Q 3456 700 3834 978 
L 3688 231 
Q 3316 72 2936 -9 
Q 2556 -91 2175 -91 
Q 1278 -91 773 396 
Q 269 884 269 1753 
Q 269 2309 461 2846 
Q 653 3384 1013 3828 
Q 1394 4300 1883 4525 
Q 2372 4750 3022 4750 
Q 3422 4750 3780 4639 
Q 4138 4528 4447 4306 
z
" transform="scale(0.015625)"/>
     </defs>
     <use xlink:href="#DejaVuSans-Oblique-45" transform="translate(0 0.09375)"/>
     <use xlink:href="#DejaVuSans-Oblique-43" transform="translate(63.183594 -16.3125)scale(0.7)"/>
    </g>
   </g>
   <g id="text_5">
    <!-- $E_F$ -->
    <g transform="translate(311.458182 431.7975)scale(0.16 -0.16)">
     <defs>
      <path id="DejaVuSans-Oblique-46" d="M 1081 4666 
L 3756 4666 
L 3653 4134 
L 1606 4134 
L 1338 2759 
L 3188 2759 
L 3084 2228 
L 1234 2228 
L 800 0 
L 172 0 
L 1081 4666 
z
" transform="scale(0.015625)"/>
     </defs>
     <use xlink:href="#DejaVuSans-Oblique-45" transform="translate(0 0.09375)"/>
     <use xlink:href="#DejaVuSans-Oblique-46" transform="translate(63.183594 -16.3125)scale(0.7)"/>
    </g>
   </g>
   <g id="legend_1">
    <g id="patch_4">
     <path d="M 485.04 149.615 
L 554 149.615 
Q 557.2 149.615 557.2 146.415 
L 557.2 30.525 
Q 557.2 27.325 554 27.325 
L 485.04 27.325 
Q 481.84 27.325 481.84 30.525 
L 481.84 146.415 
Q 481.84 149.615 485.04 149.615 
z
" style="fill: #ffffff; opacity: 0.8; stroke: #cccccc; stroke-linejoin: miter"/>
    </g>
    <g id="line2d_5">
     <path d="M 488.24 40.2825 
L 504.24 40.2825 
L 520.24 40.2825 
" style="fill: none; stroke: #1f77b4; stroke-width: 1.5; stroke-linecap: square"/>
    </g>
    <g id="text_6">
     <!-- $g_e$ -->
     <g transform="translate(533.04 45.8825)scale(0.16 -0.16)">
      <defs>
       <path id="DejaVuSans-Oblique-65" d="M 3078 2063 
Q 3088 2113 3092 2166 
Q 3097 2219 3097 2272 
Q 3097 2653 2873 2875 
Q 2650 3097 2266 3097 
Q 1838 3097 1509 2826 
Q 1181 2556 1013 2059 
L 3078 2063 
z
M 3578 1613 
L 903 1613 
Q 884 1494 878 1425 
Q 872 1356 872 1306 
Q 872 872 1139 634 
Q 1406 397 1894 397 
Q 2269 397 2603 481 
Q 2938 566 3225 728 
L 3116 159 
Q 2806 34 2476 -28 
Q 2147 -91 1806 -91 
Q 1078 -91 686 257 
Q 294 606 294 1247 
Q 294 1794 489 2264 
Q 684 2734 1063 3103 
Q 1306 3334 1642 3459 
Q 1978 3584 2356 3584 
Q 2950 3584 3301 3228 
Q 3653 2872 3653 2272 
Q 3653 2128 3634 1964 
Q 3616 1800 3578 1613 
z
" transform="scale(0.015625)"/>
      </defs>
      <use xlink:href="#DejaVuSans-Oblique-67"/>
      <use xlink:href="#DejaVuSans-Oblique-65" transform="translate(63.476562 -16.40625)scale(0.7)"/>
     </g>
    </g>
    <g id="line2d_6">
     <path d="M 488.24 63.8 
L 504.24 63.8 
L 520.24 63.8 
" style="fill: none; stroke: #d62728; stroke-width: 1.5; stroke-linecap: square"/>
    </g>
    <g id="text_7">
     <!-- $g_h$ -->
     <g transform="translate(533.04 69.4)scale(0.16 -0.16)">
      <defs>
       <path id="DejaVuSans-Oblique-68" d="M 3566 2113 
L 3156 0 
L 2578 0 
L 2988 2091 
Q 3016 2238 3031 2350 
Q 3047 2463 3047 2528 
Q 3047 2791 2881 2937 
Q 2716 3084 2419 3084 
Q 1956 3084 1617 2771 
Q 1278 2459 1178 1941 
L 800 0 
L 225 0 
L 1172 4863 
L 1747 4863 
L 1375 2950 
Q 1594 3244 1934 3414 
Q 2275 3584 2650 3584 
Q 3113 3584 3367 3334 
Q 3622 3084 3622 2631 
Q 3622 2519 3608 2391 
Q 3594 2263 3566 2113 
z
" transform="scale(0.015625)"/>
      </defs>
      <use xlink:href="#DejaVuSans-Oblique-67"/>
      <use xlink:href="#DejaVuSans-Oblique-68" transform="translate(63.476562 -16.40625)scale(0.7)"/>
     </g>
    </g>
    <g id="patch_5">
     <path d="M 488.24 92.9175 
L 520.24 92.9175 
L 520.24 81.7175 
L 488.24 81.7175 
z
" style="fill: #1f77b4; fill-opacity: 0.7; stroke: #1f77b4; stroke-opacity: 0.7; stroke-linejoin: miter"/>
    </g>
    <g id="text_8">
     <!-- $n_e$ -->
     <g transform="translate(533.04 92.9175)scale(0.16 -0.16)">
      <defs>
       <path id="DejaVuSans-Oblique-6e" d="M 3566 2113 
L 3156 0 
L 2578 0 
L 2988 2091 
Q 3016 2238 3031 2350 
Q 3047 2463 3047 2528 
Q 3047 2791 2881 2937 
Q 2716 3084 2419 3084 
Q 1956 3084 1622 2776 
Q 1288 2469 1184 1941 
L 800 0 
L 225 0 
L 903 3500 
L 1478 3500 
L 1363 2950 
Q 1603 3253 1940 3418 
Q 2278 3584 2650 3584 
Q 3113 3584 3367 3334 
Q 3622 3084 3622 2631 
Q 3622 2519 3608 2391 
Q 3594 2263 3566 2113 
z
" transform="scale(0.015625)"/>
      </defs>
      <use xlink:href="#DejaVuSans-Oblique-6e"/>
      <use xlink:href="#DejaVuSans-Oblique-65" transform="translate(63.378906 -16.40625)scale(0.7)"/>
     </g>
    </g>
    <g id="patch_6">
     <path d="M 488.24 116.4025 
L 520.24 116.4025 
L 520.24 105.2025 
L 488.24 105.2025 
z
" style="fill: #d62728; fill-opacity: 0.7; stroke: #d62728; stroke-opacity: 0.7; stroke-linejoin: miter"/>
    </g>
    <g id="text_9">
     <!-- $n_h$ -->
     <g transform="translate(533.04 116.4025)scale(0.16 -0.16)">
      <use xlink:href="#DejaVuSans-Oblique-6e"/>
      <use xlink:href="#DejaVuSans-Oblique-68" transform="translate(63.378906 -16.40625)scale(0.7)"/>
     </g>
    </g>
    <g id="line2d_7">
     <path d="M 488.24 134.2875 
L 504.24 134.2875 
L 520.24 134.2875 
" style="fill: none; stroke-dasharray: 5.55,2.4; stroke-dashoffset: 0; stroke: #000000; stroke-width: 1.5"/>
    </g>
    <g id="text_10">
     <!-- $n_F$ -->
     <g transform="translate(533.04 139.8875)scale(0.16 -0.16)">
      <use xlink:href="#DejaVuSans-Oblique-6e"/>
      <use xlink:href="#DejaVuSans-Oblique-46" transform="translate(63.378906 -16.40625)scale(0.7)"/>
     </g>
    </g>
   </g>
  </g>
 </g>
 <defs>
  <clipPath id="p39924d7340">
   <rect x="7.2" y="19.325" width="558" height="388.08"/>
  </clipPath>
 </defs>
</svg>
